<mxfile host="65bd71144e">
    <diagram id="Kz0ywYGAHpizFOXHB_ZU" name="Page-1">
        <mxGraphModel dx="644" dy="515" grid="1" gridSize="10" guides="1" tooltips="1" connect="1" arrows="1" fold="1" page="1" pageScale="1" pageWidth="827" pageHeight="1169" math="0" shadow="0">
            <root>
                <mxCell id="0"/>
                <mxCell id="1" parent="0"/>
                <mxCell id="3" value="" style="rounded=0;whiteSpace=wrap;html=1;fillColor=#FFFFFF;strokeColor=none;connectable=0;container=1;collapsible=0;recursiveResize=0;movable=0;rotatable=0;cloneable=0;deletable=0;" parent="1" vertex="1">
                    <mxGeometry x="290" y="104" width="1140" height="2696" as="geometry"/>
                </mxCell>
                <mxCell id="64" style="edgeStyle=orthogonalEdgeStyle;shape=connector;rounded=1;html=1;exitX=0.5;exitY=1;exitDx=0;exitDy=0;entryX=0.5;entryY=0;entryDx=0;entryDy=0;labelBackgroundColor=default;fontFamily=Helvetica;fontSize=16;fontColor=#000000;endArrow=blockThin;endFill=1;strokeColor=#000000;strokeWidth=1;" parent="3" source="5" target="7" edge="1">
                    <mxGeometry relative="1" as="geometry"/>
                </mxCell>
                <mxCell id="65" style="edgeStyle=orthogonalEdgeStyle;shape=connector;rounded=1;html=1;exitX=0.5;exitY=1;exitDx=0;exitDy=0;entryX=0.5;entryY=0;entryDx=0;entryDy=0;labelBackgroundColor=default;fontFamily=Helvetica;fontSize=16;fontColor=#000000;endArrow=blockThin;endFill=1;strokeColor=#000000;strokeWidth=1;" parent="3" source="5" target="59" edge="1">
                    <mxGeometry relative="1" as="geometry"/>
                </mxCell>
                <mxCell id="5" value="&lt;div style=&quot;font-size: 16px&quot;&gt;&lt;div style=&quot;font-size: 16px&quot;&gt;&lt;div style=&quot;font-size: 16px&quot;&gt;&lt;div style=&quot;font-size: 16px&quot;&gt;&lt;div style=&quot;font-size: 16px&quot;&gt;大费&lt;br&gt;&lt;/div&gt;&lt;/div&gt;&lt;/div&gt;&lt;/div&gt;&lt;div style=&quot;font-size: 16px&quot;&gt;&lt;/div&gt;&lt;/div&gt;" style="rounded=1;whiteSpace=wrap;html=1;fillColor=#E6E6E6;fontColor=#000000;fontSize=16;strokeColor=none;strokeWidth=2;" parent="3" vertex="1">
                    <mxGeometry x="227" y="47" width="50" height="30" as="geometry"/>
                </mxCell>
                <mxCell id="6" value="&lt;div style=&quot;font-size: 14px&quot;&gt;&lt;div style=&quot;font-size: 14px&quot;&gt;&lt;div style=&quot;font-size: 14px&quot;&gt;&lt;div style=&quot;font-size: 14px&quot;&gt;&lt;div&gt;伯益&lt;/div&gt;&lt;/div&gt;&lt;/div&gt;&lt;/div&gt;&lt;/div&gt;" style="text;html=1;align=center;verticalAlign=middle;resizable=0;points=[];autosize=1;strokeColor=none;fillColor=none;fontSize=14;fontColor=#000000;" parent="3" vertex="1">
                    <mxGeometry x="276" y="52" width="40" height="20" as="geometry"/>
                </mxCell>
                <mxCell id="78" style="edgeStyle=orthogonalEdgeStyle;shape=connector;rounded=1;html=1;exitX=0.5;exitY=1;exitDx=0;exitDy=0;entryX=0.5;entryY=0;entryDx=0;entryDy=0;labelBackgroundColor=default;fontFamily=Helvetica;fontSize=16;fontColor=#000000;endArrow=blockThin;endFill=1;strokeColor=#000000;strokeWidth=1;" parent="3" source="7" target="74" edge="1">
                    <mxGeometry relative="1" as="geometry"/>
                </mxCell>
                <mxCell id="7" value="&lt;div style=&quot;font-size: 16px&quot;&gt;&lt;div style=&quot;font-size: 16px&quot;&gt;&lt;div style=&quot;font-size: 16px&quot;&gt;&lt;div style=&quot;font-size: 16px&quot;&gt;&lt;div style=&quot;font-size: 16px&quot;&gt;大廉&lt;br&gt;&lt;/div&gt;&lt;/div&gt;&lt;/div&gt;&lt;/div&gt;&lt;div style=&quot;font-size: 16px&quot;&gt;&lt;/div&gt;&lt;/div&gt;" style="rounded=1;whiteSpace=wrap;html=1;fillColor=#E6E6E6;fontColor=#000000;fontSize=16;strokeColor=none;strokeWidth=2;" parent="3" vertex="1">
                    <mxGeometry x="165" y="110" width="50" height="30" as="geometry"/>
                </mxCell>
                <mxCell id="16" style="edgeStyle=orthogonalEdgeStyle;shape=connector;rounded=1;html=1;exitX=0.5;exitY=1;exitDx=0;exitDy=0;entryX=0.5;entryY=0;entryDx=0;entryDy=0;labelBackgroundColor=default;fontFamily=Helvetica;fontSize=16;fontColor=#000000;endArrow=blockThin;endFill=1;strokeColor=#000000;strokeWidth=1;" parent="3" edge="1">
                    <mxGeometry relative="1" as="geometry">
                        <mxPoint x="307" y="217" as="sourcePoint"/>
                    </mxGeometry>
                </mxCell>
                <mxCell id="17" style="edgeStyle=orthogonalEdgeStyle;shape=connector;rounded=1;html=1;exitX=0.5;exitY=1;exitDx=0;exitDy=0;entryX=0.5;entryY=0;entryDx=0;entryDy=0;labelBackgroundColor=default;fontFamily=Helvetica;fontSize=16;fontColor=#000000;endArrow=blockThin;endFill=1;strokeColor=#000000;strokeWidth=1;" parent="3" edge="1">
                    <mxGeometry relative="1" as="geometry">
                        <mxPoint x="307" y="277" as="sourcePoint"/>
                    </mxGeometry>
                </mxCell>
                <mxCell id="19" style="edgeStyle=orthogonalEdgeStyle;shape=connector;rounded=1;html=1;exitX=0.5;exitY=1;exitDx=0;exitDy=0;entryX=0.5;entryY=0;entryDx=0;entryDy=0;labelBackgroundColor=default;fontFamily=Helvetica;fontSize=16;fontColor=#000000;endArrow=blockThin;endFill=1;strokeColor=#000000;strokeWidth=1;" parent="3" edge="1">
                    <mxGeometry relative="1" as="geometry">
                        <mxPoint x="307" y="341" as="sourcePoint"/>
                    </mxGeometry>
                </mxCell>
                <mxCell id="21" style="edgeStyle=orthogonalEdgeStyle;shape=connector;rounded=1;html=1;exitX=0.5;exitY=1;exitDx=0;exitDy=0;entryX=0.5;entryY=0;entryDx=0;entryDy=0;labelBackgroundColor=default;fontFamily=Helvetica;fontSize=16;fontColor=#000000;endArrow=blockThin;endFill=1;strokeColor=#000000;strokeWidth=1;" parent="3" edge="1">
                    <mxGeometry relative="1" as="geometry">
                        <mxPoint x="307" y="407" as="sourcePoint"/>
                    </mxGeometry>
                </mxCell>
                <mxCell id="25" style="edgeStyle=orthogonalEdgeStyle;shape=connector;rounded=1;html=1;exitX=0.5;exitY=1;exitDx=0;exitDy=0;entryX=0.5;entryY=0;entryDx=0;entryDy=0;labelBackgroundColor=default;fontFamily=Helvetica;fontSize=16;fontColor=#000000;endArrow=blockThin;endFill=1;strokeColor=#000000;strokeWidth=1;" parent="3" edge="1">
                    <mxGeometry relative="1" as="geometry">
                        <mxPoint x="307" y="557" as="targetPoint"/>
                    </mxGeometry>
                </mxCell>
                <mxCell id="27" style="edgeStyle=orthogonalEdgeStyle;shape=connector;rounded=1;html=1;exitX=0.5;exitY=1;exitDx=0;exitDy=0;entryX=0.5;entryY=0;entryDx=0;entryDy=0;labelBackgroundColor=default;fontFamily=Helvetica;fontSize=16;fontColor=#000000;endArrow=blockThin;endFill=1;strokeColor=#000000;strokeWidth=1;" parent="3" edge="1">
                    <mxGeometry relative="1" as="geometry">
                        <mxPoint x="252" y="617" as="targetPoint"/>
                    </mxGeometry>
                </mxCell>
                <mxCell id="30" style="edgeStyle=orthogonalEdgeStyle;shape=connector;rounded=1;html=1;exitX=0.5;exitY=1;exitDx=0;exitDy=0;entryX=0.5;entryY=0;entryDx=0;entryDy=0;labelBackgroundColor=default;fontFamily=Helvetica;fontSize=16;fontColor=#000000;endArrow=blockThin;endFill=1;strokeColor=#000000;strokeWidth=1;" parent="3" edge="1">
                    <mxGeometry relative="1" as="geometry">
                        <mxPoint x="362" y="617" as="targetPoint"/>
                    </mxGeometry>
                </mxCell>
                <mxCell id="34" style="edgeStyle=orthogonalEdgeStyle;shape=connector;rounded=1;html=1;exitX=0.5;exitY=1;exitDx=0;exitDy=0;entryX=0.5;entryY=0;entryDx=0;entryDy=0;labelBackgroundColor=default;fontFamily=Helvetica;fontSize=16;fontColor=#000000;endArrow=blockThin;endFill=1;strokeColor=#000000;strokeWidth=1;" parent="3" edge="1">
                    <mxGeometry relative="1" as="geometry">
                        <mxPoint x="252" y="677" as="targetPoint"/>
                    </mxGeometry>
                </mxCell>
                <mxCell id="32" style="edgeStyle=orthogonalEdgeStyle;shape=connector;rounded=1;html=1;exitX=0.5;exitY=1;exitDx=0;exitDy=0;entryX=0.5;entryY=0;entryDx=0;entryDy=0;labelBackgroundColor=default;fontFamily=Helvetica;fontSize=16;fontColor=#000000;endArrow=blockThin;endFill=1;strokeColor=#000000;strokeWidth=1;" parent="3" edge="1">
                    <mxGeometry relative="1" as="geometry">
                        <mxPoint x="362" y="677" as="targetPoint"/>
                    </mxGeometry>
                </mxCell>
                <mxCell id="37" style="edgeStyle=orthogonalEdgeStyle;shape=connector;rounded=1;html=1;exitX=0.5;exitY=1;exitDx=0;exitDy=0;entryX=0.5;entryY=0;entryDx=0;entryDy=0;labelBackgroundColor=default;fontFamily=Helvetica;fontSize=16;fontColor=#000000;endArrow=blockThin;endFill=1;strokeColor=#000000;strokeWidth=1;" parent="3" edge="1">
                    <mxGeometry relative="1" as="geometry">
                        <mxPoint x="252" y="737" as="targetPoint"/>
                    </mxGeometry>
                </mxCell>
                <mxCell id="39" style="edgeStyle=orthogonalEdgeStyle;shape=connector;rounded=1;html=1;exitX=0.5;exitY=1;exitDx=0;exitDy=0;entryX=0.5;entryY=0;entryDx=0;entryDy=0;labelBackgroundColor=default;fontFamily=Helvetica;fontSize=16;fontColor=#000000;endArrow=blockThin;endFill=1;strokeColor=#000000;strokeWidth=1;" parent="3" edge="1">
                    <mxGeometry relative="1" as="geometry">
                        <mxPoint x="252" y="797" as="targetPoint"/>
                    </mxGeometry>
                </mxCell>
                <mxCell id="41" style="edgeStyle=orthogonalEdgeStyle;shape=connector;rounded=1;html=1;exitX=0.5;exitY=1;exitDx=0;exitDy=0;entryX=0.5;entryY=0;entryDx=0;entryDy=0;labelBackgroundColor=default;fontFamily=Helvetica;fontSize=16;fontColor=#000000;endArrow=blockThin;endFill=1;strokeColor=#000000;strokeWidth=1;" parent="3" edge="1">
                    <mxGeometry relative="1" as="geometry">
                        <mxPoint x="252" y="857" as="targetPoint"/>
                    </mxGeometry>
                </mxCell>
                <mxCell id="70" style="edgeStyle=orthogonalEdgeStyle;shape=connector;rounded=1;html=1;exitX=0.5;exitY=1;exitDx=0;exitDy=0;entryX=0.5;entryY=0;entryDx=0;entryDy=0;labelBackgroundColor=default;fontFamily=Helvetica;fontSize=16;fontColor=#000000;endArrow=blockThin;endFill=1;strokeColor=#000000;strokeWidth=1;" parent="3" source="59" target="66" edge="1">
                    <mxGeometry relative="1" as="geometry"/>
                </mxCell>
                <mxCell id="59" value="&lt;div style=&quot;font-size: 16px&quot;&gt;&lt;div style=&quot;font-size: 16px&quot;&gt;&lt;div style=&quot;font-size: 16px&quot;&gt;&lt;div style=&quot;font-size: 16px&quot;&gt;&lt;div style=&quot;font-size: 16px&quot;&gt;若木&lt;br&gt;&lt;/div&gt;&lt;/div&gt;&lt;/div&gt;&lt;/div&gt;&lt;div style=&quot;font-size: 16px&quot;&gt;&lt;/div&gt;&lt;/div&gt;" style="rounded=1;whiteSpace=wrap;html=1;fillColor=#E6E6E6;fontColor=#000000;fontSize=16;strokeColor=none;strokeWidth=2;" parent="3" vertex="1">
                    <mxGeometry x="285" y="110" width="50" height="30" as="geometry"/>
                </mxCell>
                <mxCell id="62" value="&lt;div style=&quot;font-size: 14px&quot;&gt;&lt;div style=&quot;font-size: 14px&quot;&gt;&lt;div style=&quot;font-size: 14px&quot;&gt;&lt;div style=&quot;font-size: 14px&quot;&gt;&lt;div&gt;鸟俗氏&lt;/div&gt;&lt;/div&gt;&lt;/div&gt;&lt;/div&gt;&lt;/div&gt;" style="text;html=1;align=center;verticalAlign=middle;resizable=0;points=[];autosize=1;strokeColor=none;fillColor=none;fontSize=14;fontColor=#000000;" parent="3" vertex="1">
                    <mxGeometry x="211" y="115" width="60" height="20" as="geometry"/>
                </mxCell>
                <mxCell id="63" value="&lt;div style=&quot;font-size: 14px&quot;&gt;&lt;div style=&quot;font-size: 14px&quot;&gt;&lt;div style=&quot;font-size: 14px&quot;&gt;&lt;div style=&quot;font-size: 14px&quot;&gt;&lt;div&gt;费氏&lt;/div&gt;&lt;/div&gt;&lt;/div&gt;&lt;/div&gt;&lt;/div&gt;" style="text;html=1;align=center;verticalAlign=middle;resizable=0;points=[];autosize=1;strokeColor=none;fillColor=none;fontSize=14;fontColor=#000000;" parent="3" vertex="1">
                    <mxGeometry x="334" y="115" width="40" height="20" as="geometry"/>
                </mxCell>
                <mxCell id="71" style="edgeStyle=orthogonalEdgeStyle;shape=connector;rounded=1;html=1;exitX=0.5;exitY=1;exitDx=0;exitDy=0;entryX=0.5;entryY=0;entryDx=0;entryDy=0;labelBackgroundColor=default;fontFamily=Helvetica;fontSize=16;fontColor=#000000;endArrow=blockThin;endFill=1;strokeColor=#000000;strokeWidth=1;" parent="3" source="66" target="67" edge="1">
                    <mxGeometry relative="1" as="geometry"/>
                </mxCell>
                <mxCell id="66" value="&lt;div style=&quot;font-size: 16px&quot;&gt;&lt;div style=&quot;font-size: 16px&quot;&gt;&lt;div style=&quot;font-size: 16px&quot;&gt;&lt;div style=&quot;font-size: 16px&quot;&gt;&lt;div style=&quot;font-size: 16px&quot;&gt;？&lt;br&gt;&lt;/div&gt;&lt;/div&gt;&lt;/div&gt;&lt;/div&gt;&lt;div style=&quot;font-size: 16px&quot;&gt;&lt;/div&gt;&lt;/div&gt;" style="rounded=1;whiteSpace=wrap;html=1;fillColor=#E6E6E6;fontColor=#000000;fontSize=16;strokeColor=none;strokeWidth=2;" parent="3" vertex="1">
                    <mxGeometry x="285" y="160" width="50" height="30" as="geometry"/>
                </mxCell>
                <mxCell id="72" style="edgeStyle=orthogonalEdgeStyle;shape=connector;rounded=1;html=1;exitX=0.5;exitY=1;exitDx=0;exitDy=0;entryX=0.5;entryY=0;entryDx=0;entryDy=0;labelBackgroundColor=default;fontFamily=Helvetica;fontSize=16;fontColor=#000000;endArrow=blockThin;endFill=1;strokeColor=#000000;strokeWidth=1;" parent="3" source="67" target="68" edge="1">
                    <mxGeometry relative="1" as="geometry"/>
                </mxCell>
                <mxCell id="67" value="&lt;div style=&quot;font-size: 16px&quot;&gt;&lt;div style=&quot;font-size: 16px&quot;&gt;&lt;div style=&quot;font-size: 16px&quot;&gt;&lt;div style=&quot;font-size: 16px&quot;&gt;&lt;div style=&quot;font-size: 16px&quot;&gt;？&lt;br&gt;&lt;/div&gt;&lt;/div&gt;&lt;/div&gt;&lt;/div&gt;&lt;div style=&quot;font-size: 16px&quot;&gt;&lt;/div&gt;&lt;/div&gt;" style="rounded=1;whiteSpace=wrap;html=1;fillColor=#E6E6E6;fontColor=#000000;fontSize=16;strokeColor=none;strokeWidth=2;" parent="3" vertex="1">
                    <mxGeometry x="285" y="210" width="50" height="30" as="geometry"/>
                </mxCell>
                <mxCell id="73" style="edgeStyle=orthogonalEdgeStyle;shape=connector;rounded=1;html=1;exitX=0.5;exitY=1;exitDx=0;exitDy=0;entryX=0.5;entryY=0;entryDx=0;entryDy=0;labelBackgroundColor=default;fontFamily=Helvetica;fontSize=16;fontColor=#000000;endArrow=blockThin;endFill=1;strokeColor=#000000;strokeWidth=1;" parent="3" source="68" target="69" edge="1">
                    <mxGeometry relative="1" as="geometry"/>
                </mxCell>
                <mxCell id="68" value="&lt;div style=&quot;font-size: 16px&quot;&gt;&lt;div style=&quot;font-size: 16px&quot;&gt;&lt;div style=&quot;font-size: 16px&quot;&gt;&lt;div style=&quot;font-size: 16px&quot;&gt;&lt;div style=&quot;font-size: 16px&quot;&gt;？&lt;br&gt;&lt;/div&gt;&lt;/div&gt;&lt;/div&gt;&lt;/div&gt;&lt;div style=&quot;font-size: 16px&quot;&gt;&lt;/div&gt;&lt;/div&gt;" style="rounded=1;whiteSpace=wrap;html=1;fillColor=#E6E6E6;fontColor=#000000;fontSize=16;strokeColor=none;strokeWidth=2;" parent="3" vertex="1">
                    <mxGeometry x="285" y="260" width="50" height="30" as="geometry"/>
                </mxCell>
                <mxCell id="69" value="&lt;div style=&quot;font-size: 16px&quot;&gt;&lt;div style=&quot;font-size: 16px&quot;&gt;&lt;div style=&quot;font-size: 16px&quot;&gt;&lt;div style=&quot;font-size: 16px&quot;&gt;&lt;div style=&quot;font-size: 16px&quot;&gt;费昌&lt;br&gt;&lt;/div&gt;&lt;/div&gt;&lt;/div&gt;&lt;/div&gt;&lt;div style=&quot;font-size: 16px&quot;&gt;&lt;/div&gt;&lt;/div&gt;" style="rounded=1;whiteSpace=wrap;html=1;fillColor=#E6E6E6;fontColor=#000000;fontSize=16;strokeColor=none;strokeWidth=2;" parent="3" vertex="1">
                    <mxGeometry x="285" y="310" width="50" height="30" as="geometry"/>
                </mxCell>
                <mxCell id="282" style="edgeStyle=orthogonalEdgeStyle;shape=connector;rounded=1;html=1;exitX=0.5;exitY=1;exitDx=0;exitDy=0;entryX=0.5;entryY=0;entryDx=0;entryDy=0;labelBackgroundColor=default;fontFamily=Helvetica;fontSize=16;fontColor=#000000;endArrow=blockThin;endFill=1;strokeColor=#000000;strokeWidth=1;" parent="3" source="74" target="75" edge="1">
                    <mxGeometry relative="1" as="geometry"/>
                </mxCell>
                <mxCell id="74" value="&lt;div style=&quot;font-size: 16px&quot;&gt;&lt;div style=&quot;font-size: 16px&quot;&gt;&lt;div style=&quot;font-size: 16px&quot;&gt;&lt;div style=&quot;font-size: 16px&quot;&gt;&lt;div style=&quot;font-size: 16px&quot;&gt;？&lt;br&gt;&lt;/div&gt;&lt;/div&gt;&lt;/div&gt;&lt;/div&gt;&lt;div style=&quot;font-size: 16px&quot;&gt;&lt;/div&gt;&lt;/div&gt;" style="rounded=1;whiteSpace=wrap;html=1;fillColor=#E6E6E6;fontColor=#000000;fontSize=16;strokeColor=none;strokeWidth=2;" parent="3" vertex="1">
                    <mxGeometry x="165" y="160" width="50" height="30" as="geometry"/>
                </mxCell>
                <mxCell id="283" style="edgeStyle=orthogonalEdgeStyle;shape=connector;rounded=1;html=1;exitX=0.5;exitY=1;exitDx=0;exitDy=0;entryX=0.5;entryY=0;entryDx=0;entryDy=0;labelBackgroundColor=default;fontFamily=Helvetica;fontSize=16;fontColor=#000000;endArrow=blockThin;endFill=1;strokeColor=#000000;strokeWidth=1;" parent="3" source="75" target="76" edge="1">
                    <mxGeometry relative="1" as="geometry"/>
                </mxCell>
                <mxCell id="75" value="&lt;div style=&quot;font-size: 16px&quot;&gt;&lt;div style=&quot;font-size: 16px&quot;&gt;&lt;div style=&quot;font-size: 16px&quot;&gt;&lt;div style=&quot;font-size: 16px&quot;&gt;&lt;div style=&quot;font-size: 16px&quot;&gt;？&lt;br&gt;&lt;/div&gt;&lt;/div&gt;&lt;/div&gt;&lt;/div&gt;&lt;div style=&quot;font-size: 16px&quot;&gt;&lt;/div&gt;&lt;/div&gt;" style="rounded=1;whiteSpace=wrap;html=1;fillColor=#E6E6E6;fontColor=#000000;fontSize=16;strokeColor=none;strokeWidth=2;" parent="3" vertex="1">
                    <mxGeometry x="165" y="210" width="50" height="30" as="geometry"/>
                </mxCell>
                <mxCell id="79" style="edgeStyle=orthogonalEdgeStyle;shape=connector;rounded=1;html=1;exitX=0.5;exitY=1;exitDx=0;exitDy=0;entryX=0.5;entryY=0;entryDx=0;entryDy=0;labelBackgroundColor=default;fontFamily=Helvetica;fontSize=16;fontColor=#000000;endArrow=blockThin;endFill=1;strokeColor=#000000;strokeWidth=1;" parent="3" source="76" target="77" edge="1">
                    <mxGeometry relative="1" as="geometry"/>
                </mxCell>
                <mxCell id="81" style="edgeStyle=orthogonalEdgeStyle;shape=connector;rounded=1;html=1;exitX=0.5;exitY=1;exitDx=0;exitDy=0;labelBackgroundColor=default;fontFamily=Helvetica;fontSize=16;fontColor=#000000;endArrow=blockThin;endFill=1;strokeColor=#000000;strokeWidth=1;" parent="3" source="76" target="80" edge="1">
                    <mxGeometry relative="1" as="geometry"/>
                </mxCell>
                <mxCell id="76" value="&lt;div style=&quot;font-size: 16px&quot;&gt;&lt;div style=&quot;font-size: 16px&quot;&gt;&lt;div style=&quot;font-size: 16px&quot;&gt;&lt;div style=&quot;font-size: 16px&quot;&gt;&lt;div style=&quot;font-size: 16px&quot;&gt;？&lt;br&gt;&lt;/div&gt;&lt;/div&gt;&lt;/div&gt;&lt;/div&gt;&lt;div style=&quot;font-size: 16px&quot;&gt;&lt;/div&gt;&lt;/div&gt;" style="rounded=1;whiteSpace=wrap;html=1;fillColor=#E6E6E6;fontColor=#000000;fontSize=16;strokeColor=none;strokeWidth=2;" parent="3" vertex="1">
                    <mxGeometry x="165" y="260" width="50" height="30" as="geometry"/>
                </mxCell>
                <mxCell id="77" value="&lt;div style=&quot;font-size: 16px&quot;&gt;&lt;div style=&quot;font-size: 16px&quot;&gt;&lt;div style=&quot;font-size: 16px&quot;&gt;&lt;div style=&quot;font-size: 16px&quot;&gt;&lt;div style=&quot;font-size: 16px&quot;&gt;孟戏&lt;br&gt;&lt;/div&gt;&lt;/div&gt;&lt;/div&gt;&lt;/div&gt;&lt;div style=&quot;font-size: 16px&quot;&gt;&lt;/div&gt;&lt;/div&gt;" style="rounded=1;whiteSpace=wrap;html=1;fillColor=#E6E6E6;fontColor=#000000;fontSize=16;strokeColor=none;strokeWidth=2;" parent="3" vertex="1">
                    <mxGeometry x="125" y="310" width="50" height="30" as="geometry"/>
                </mxCell>
                <mxCell id="111" style="edgeStyle=orthogonalEdgeStyle;shape=connector;rounded=1;html=1;exitX=0.5;exitY=1;exitDx=0;exitDy=0;entryX=0.5;entryY=0;entryDx=0;entryDy=0;labelBackgroundColor=default;fontFamily=Helvetica;fontSize=16;fontColor=#000000;endArrow=blockThin;endFill=1;strokeColor=#000000;strokeWidth=1;" parent="3" source="80" target="82" edge="1">
                    <mxGeometry relative="1" as="geometry"/>
                </mxCell>
                <mxCell id="80" value="&lt;div style=&quot;font-size: 16px&quot;&gt;&lt;div style=&quot;font-size: 16px&quot;&gt;&lt;div style=&quot;font-size: 16px&quot;&gt;&lt;div style=&quot;font-size: 16px&quot;&gt;&lt;div style=&quot;font-size: 16px&quot;&gt;仲衍&lt;br&gt;&lt;/div&gt;&lt;/div&gt;&lt;/div&gt;&lt;/div&gt;&lt;div style=&quot;font-size: 16px&quot;&gt;&lt;/div&gt;&lt;/div&gt;" style="rounded=1;whiteSpace=wrap;html=1;fillColor=#E6E6E6;fontColor=#000000;fontSize=16;strokeColor=none;strokeWidth=2;" parent="3" vertex="1">
                    <mxGeometry x="203" y="310" width="50" height="30" as="geometry"/>
                </mxCell>
                <mxCell id="112" style="edgeStyle=orthogonalEdgeStyle;shape=connector;rounded=1;html=1;exitX=0.5;exitY=1;exitDx=0;exitDy=0;entryX=0.5;entryY=0;entryDx=0;entryDy=0;labelBackgroundColor=default;fontFamily=Helvetica;fontSize=16;fontColor=#000000;endArrow=blockThin;endFill=1;strokeColor=#000000;strokeWidth=1;" parent="3" source="82" target="83" edge="1">
                    <mxGeometry relative="1" as="geometry"/>
                </mxCell>
                <mxCell id="82" value="&lt;div style=&quot;font-size: 16px&quot;&gt;&lt;div style=&quot;font-size: 16px&quot;&gt;&lt;div style=&quot;font-size: 16px&quot;&gt;&lt;div style=&quot;font-size: 16px&quot;&gt;&lt;div style=&quot;font-size: 16px&quot;&gt;？&lt;br&gt;&lt;/div&gt;&lt;/div&gt;&lt;/div&gt;&lt;/div&gt;&lt;div style=&quot;font-size: 16px&quot;&gt;&lt;/div&gt;&lt;/div&gt;" style="rounded=1;whiteSpace=wrap;html=1;fillColor=#E6E6E6;fontColor=#000000;fontSize=16;strokeColor=none;strokeWidth=2;" parent="3" vertex="1">
                    <mxGeometry x="203" y="360" width="50" height="30" as="geometry"/>
                </mxCell>
                <mxCell id="113" style="edgeStyle=orthogonalEdgeStyle;shape=connector;rounded=1;html=1;exitX=0.5;exitY=1;exitDx=0;exitDy=0;entryX=0.5;entryY=0;entryDx=0;entryDy=0;labelBackgroundColor=default;fontFamily=Helvetica;fontSize=16;fontColor=#000000;endArrow=blockThin;endFill=1;strokeColor=#000000;strokeWidth=1;" parent="3" source="83" target="84" edge="1">
                    <mxGeometry relative="1" as="geometry"/>
                </mxCell>
                <mxCell id="83" value="&lt;div style=&quot;font-size: 16px&quot;&gt;&lt;div style=&quot;font-size: 16px&quot;&gt;&lt;div style=&quot;font-size: 16px&quot;&gt;&lt;div style=&quot;font-size: 16px&quot;&gt;&lt;div style=&quot;font-size: 16px&quot;&gt;？&lt;br&gt;&lt;/div&gt;&lt;/div&gt;&lt;/div&gt;&lt;/div&gt;&lt;div style=&quot;font-size: 16px&quot;&gt;&lt;/div&gt;&lt;/div&gt;" style="rounded=1;whiteSpace=wrap;html=1;fillColor=#E6E6E6;fontColor=#000000;fontSize=16;strokeColor=none;strokeWidth=2;" parent="3" vertex="1">
                    <mxGeometry x="203" y="410" width="50" height="30" as="geometry"/>
                </mxCell>
                <mxCell id="87" style="edgeStyle=orthogonalEdgeStyle;shape=connector;rounded=1;html=1;exitX=0.5;exitY=1;exitDx=0;exitDy=0;entryX=0.5;entryY=0;entryDx=0;entryDy=0;labelBackgroundColor=default;fontFamily=Helvetica;fontSize=16;fontColor=#000000;endArrow=blockThin;endFill=1;strokeColor=#000000;strokeWidth=1;" parent="3" source="84" target="85" edge="1">
                    <mxGeometry relative="1" as="geometry"/>
                </mxCell>
                <mxCell id="84" value="&lt;div style=&quot;font-size: 16px&quot;&gt;&lt;div style=&quot;font-size: 16px&quot;&gt;&lt;div style=&quot;font-size: 16px&quot;&gt;&lt;div style=&quot;font-size: 16px&quot;&gt;&lt;div style=&quot;font-size: 16px&quot;&gt;胥轩&lt;br&gt;&lt;/div&gt;&lt;/div&gt;&lt;/div&gt;&lt;/div&gt;&lt;div style=&quot;font-size: 16px&quot;&gt;&lt;/div&gt;&lt;/div&gt;" style="rounded=1;whiteSpace=wrap;html=1;fillColor=#E6E6E6;fontColor=#000000;fontSize=16;strokeColor=none;strokeWidth=2;" parent="3" vertex="1">
                    <mxGeometry x="203" y="460" width="50" height="30" as="geometry"/>
                </mxCell>
                <mxCell id="89" style="edgeStyle=orthogonalEdgeStyle;shape=connector;rounded=1;html=1;exitX=0.5;exitY=1;exitDx=0;exitDy=0;entryX=0.5;entryY=0;entryDx=0;entryDy=0;labelBackgroundColor=default;fontFamily=Helvetica;fontSize=16;fontColor=#000000;endArrow=blockThin;endFill=1;strokeColor=#000000;strokeWidth=1;" parent="3" source="85" target="88" edge="1">
                    <mxGeometry relative="1" as="geometry"/>
                </mxCell>
                <mxCell id="85" value="&lt;div style=&quot;font-size: 16px&quot;&gt;&lt;div style=&quot;font-size: 16px&quot;&gt;&lt;div style=&quot;font-size: 16px&quot;&gt;&lt;div style=&quot;font-size: 16px&quot;&gt;&lt;div style=&quot;font-size: 16px&quot;&gt;中潏&lt;br&gt;&lt;/div&gt;&lt;/div&gt;&lt;/div&gt;&lt;/div&gt;&lt;div style=&quot;font-size: 16px&quot;&gt;&lt;/div&gt;&lt;/div&gt;" style="rounded=1;whiteSpace=wrap;html=1;fillColor=#E6E6E6;fontColor=#000000;fontSize=16;strokeColor=none;strokeWidth=2;" parent="3" vertex="1">
                    <mxGeometry x="203" y="510" width="50" height="30" as="geometry"/>
                </mxCell>
                <mxCell id="91" style="edgeStyle=orthogonalEdgeStyle;shape=connector;rounded=1;html=1;exitX=0.5;exitY=1;exitDx=0;exitDy=0;entryX=0.5;entryY=0;entryDx=0;entryDy=0;labelBackgroundColor=default;fontFamily=Helvetica;fontSize=16;fontColor=#000000;endArrow=blockThin;endFill=1;strokeColor=#000000;strokeWidth=1;" parent="3" source="88" target="90" edge="1">
                    <mxGeometry relative="1" as="geometry"/>
                </mxCell>
                <mxCell id="93" style="edgeStyle=orthogonalEdgeStyle;shape=connector;rounded=1;html=1;exitX=0.5;exitY=1;exitDx=0;exitDy=0;entryX=0.5;entryY=0;entryDx=0;entryDy=0;labelBackgroundColor=default;fontFamily=Helvetica;fontSize=16;fontColor=#000000;endArrow=blockThin;endFill=1;strokeColor=#000000;strokeWidth=1;" parent="3" source="88" target="92" edge="1">
                    <mxGeometry relative="1" as="geometry"/>
                </mxCell>
                <mxCell id="88" value="&lt;div style=&quot;font-size: 16px&quot;&gt;&lt;div style=&quot;font-size: 16px&quot;&gt;&lt;div style=&quot;font-size: 16px&quot;&gt;&lt;div style=&quot;font-size: 16px&quot;&gt;&lt;div style=&quot;font-size: 16px&quot;&gt;蜚廉&lt;br&gt;&lt;/div&gt;&lt;/div&gt;&lt;/div&gt;&lt;/div&gt;&lt;div style=&quot;font-size: 16px&quot;&gt;&lt;/div&gt;&lt;/div&gt;" style="rounded=1;whiteSpace=wrap;html=1;fillColor=#E6E6E6;fontColor=#000000;fontSize=16;strokeColor=none;strokeWidth=2;" parent="3" vertex="1">
                    <mxGeometry x="203" y="560" width="50" height="30" as="geometry"/>
                </mxCell>
                <mxCell id="102" style="edgeStyle=orthogonalEdgeStyle;shape=connector;rounded=1;html=1;exitX=0.5;exitY=1;exitDx=0;exitDy=0;entryX=0.5;entryY=0;entryDx=0;entryDy=0;labelBackgroundColor=default;fontFamily=Helvetica;fontSize=16;fontColor=#000000;endArrow=blockThin;endFill=1;strokeColor=#000000;strokeWidth=1;" parent="3" source="90" target="101" edge="1">
                    <mxGeometry relative="1" as="geometry"/>
                </mxCell>
                <mxCell id="90" value="&lt;div style=&quot;font-size: 16px&quot;&gt;&lt;div style=&quot;font-size: 16px&quot;&gt;&lt;div style=&quot;font-size: 16px&quot;&gt;&lt;div style=&quot;font-size: 16px&quot;&gt;&lt;div style=&quot;font-size: 16px&quot;&gt;恶来&lt;br&gt;&lt;/div&gt;&lt;/div&gt;&lt;/div&gt;&lt;/div&gt;&lt;div style=&quot;font-size: 16px&quot;&gt;&lt;/div&gt;&lt;/div&gt;" style="rounded=1;whiteSpace=wrap;html=1;fillColor=#E6E6E6;fontColor=#000000;fontSize=16;strokeColor=none;strokeWidth=2;" parent="3" vertex="1">
                    <mxGeometry x="121" y="620" width="50" height="30" as="geometry"/>
                </mxCell>
                <mxCell id="95" style="edgeStyle=orthogonalEdgeStyle;shape=connector;rounded=1;html=1;exitX=0.5;exitY=1;exitDx=0;exitDy=0;entryX=0.5;entryY=0;entryDx=0;entryDy=0;labelBackgroundColor=default;fontFamily=Helvetica;fontSize=16;fontColor=#000000;endArrow=blockThin;endFill=1;strokeColor=#000000;strokeWidth=1;" parent="3" source="92" target="94" edge="1">
                    <mxGeometry relative="1" as="geometry"/>
                </mxCell>
                <mxCell id="92" value="&lt;div style=&quot;font-size: 16px&quot;&gt;&lt;div style=&quot;font-size: 16px&quot;&gt;&lt;div style=&quot;font-size: 16px&quot;&gt;&lt;div style=&quot;font-size: 16px&quot;&gt;&lt;div style=&quot;font-size: 16px&quot;&gt;季胜&lt;br&gt;&lt;/div&gt;&lt;/div&gt;&lt;/div&gt;&lt;/div&gt;&lt;div style=&quot;font-size: 16px&quot;&gt;&lt;/div&gt;&lt;/div&gt;" style="rounded=1;whiteSpace=wrap;html=1;fillColor=#E6E6E6;fontColor=#000000;fontSize=16;strokeColor=none;strokeWidth=2;" parent="3" vertex="1">
                    <mxGeometry x="289" y="620" width="50" height="30" as="geometry"/>
                </mxCell>
                <mxCell id="98" style="edgeStyle=orthogonalEdgeStyle;shape=connector;rounded=1;html=1;exitX=0.5;exitY=1;exitDx=0;exitDy=0;entryX=0.5;entryY=0;entryDx=0;entryDy=0;labelBackgroundColor=default;fontFamily=Helvetica;fontSize=16;fontColor=#000000;endArrow=blockThin;endFill=1;strokeColor=#000000;strokeWidth=1;" parent="3" source="94" target="97" edge="1">
                    <mxGeometry relative="1" as="geometry"/>
                </mxCell>
                <mxCell id="94" value="&lt;div style=&quot;font-size: 16px&quot;&gt;&lt;div style=&quot;font-size: 16px&quot;&gt;&lt;div style=&quot;font-size: 16px&quot;&gt;&lt;div style=&quot;font-size: 16px&quot;&gt;&lt;div style=&quot;font-size: 16px&quot;&gt;孟增&lt;br&gt;&lt;/div&gt;&lt;/div&gt;&lt;/div&gt;&lt;/div&gt;&lt;div style=&quot;font-size: 16px&quot;&gt;&lt;/div&gt;&lt;/div&gt;" style="rounded=1;whiteSpace=wrap;html=1;fillColor=#E6E6E6;fontColor=#000000;fontSize=16;strokeColor=none;strokeWidth=2;" parent="3" vertex="1">
                    <mxGeometry x="289" y="670" width="50" height="30" as="geometry"/>
                </mxCell>
                <mxCell id="96" value="&lt;div style=&quot;font-size: 14px&quot;&gt;&lt;div style=&quot;font-size: 14px&quot;&gt;&lt;div style=&quot;font-size: 14px&quot;&gt;&lt;div style=&quot;font-size: 14px&quot;&gt;&lt;div&gt;宅皋狼&lt;/div&gt;&lt;/div&gt;&lt;/div&gt;&lt;/div&gt;&lt;/div&gt;" style="text;html=1;align=center;verticalAlign=middle;resizable=0;points=[];autosize=1;strokeColor=none;fillColor=none;fontSize=14;fontColor=#000000;" parent="3" vertex="1">
                    <mxGeometry x="332" y="675" width="60" height="20" as="geometry"/>
                </mxCell>
                <mxCell id="100" style="edgeStyle=orthogonalEdgeStyle;shape=connector;rounded=1;html=1;exitX=0.5;exitY=1;exitDx=0;exitDy=0;entryX=0.5;entryY=0;entryDx=0;entryDy=0;labelBackgroundColor=default;fontFamily=Helvetica;fontSize=16;fontColor=#000000;endArrow=blockThin;endFill=1;strokeColor=#000000;strokeWidth=1;" parent="3" source="97" target="99" edge="1">
                    <mxGeometry relative="1" as="geometry"/>
                </mxCell>
                <mxCell id="97" value="&lt;div style=&quot;font-size: 16px&quot;&gt;&lt;div style=&quot;font-size: 16px&quot;&gt;&lt;div style=&quot;font-size: 16px&quot;&gt;&lt;div style=&quot;font-size: 16px&quot;&gt;&lt;div style=&quot;font-size: 16px&quot;&gt;衡父&lt;br&gt;&lt;/div&gt;&lt;/div&gt;&lt;/div&gt;&lt;/div&gt;&lt;div style=&quot;font-size: 16px&quot;&gt;&lt;/div&gt;&lt;/div&gt;" style="rounded=1;whiteSpace=wrap;html=1;fillColor=#E6E6E6;fontColor=#000000;fontSize=16;strokeColor=none;strokeWidth=2;" parent="3" vertex="1">
                    <mxGeometry x="289" y="720" width="50" height="30" as="geometry"/>
                </mxCell>
                <mxCell id="117" style="edgeStyle=orthogonalEdgeStyle;shape=connector;rounded=1;html=1;exitX=0.5;exitY=1;exitDx=0;exitDy=0;entryX=0.5;entryY=0;entryDx=0;entryDy=0;labelBackgroundColor=default;fontFamily=Helvetica;fontSize=16;fontColor=#000000;endArrow=blockThin;endFill=1;strokeColor=#000000;strokeWidth=1;" parent="3" source="99" target="116" edge="1">
                    <mxGeometry relative="1" as="geometry"/>
                </mxCell>
                <mxCell id="99" value="&lt;div style=&quot;font-size: 16px&quot;&gt;&lt;div style=&quot;font-size: 16px&quot;&gt;&lt;div style=&quot;font-size: 16px&quot;&gt;&lt;div style=&quot;font-size: 16px&quot;&gt;&lt;div style=&quot;font-size: 16px&quot;&gt;造父&lt;br&gt;&lt;/div&gt;&lt;/div&gt;&lt;/div&gt;&lt;/div&gt;&lt;div style=&quot;font-size: 16px&quot;&gt;&lt;/div&gt;&lt;/div&gt;" style="rounded=1;whiteSpace=wrap;html=1;fillColor=#E6E6E6;fontColor=#000000;fontSize=16;strokeColor=none;strokeWidth=2;" parent="3" vertex="1">
                    <mxGeometry x="289" y="770" width="50" height="30" as="geometry"/>
                </mxCell>
                <mxCell id="104" style="edgeStyle=orthogonalEdgeStyle;shape=connector;rounded=1;html=1;exitX=0.5;exitY=1;exitDx=0;exitDy=0;entryX=0.5;entryY=0;entryDx=0;entryDy=0;labelBackgroundColor=default;fontFamily=Helvetica;fontSize=16;fontColor=#000000;endArrow=blockThin;endFill=1;strokeColor=#000000;strokeWidth=1;" parent="3" source="101" target="103" edge="1">
                    <mxGeometry relative="1" as="geometry"/>
                </mxCell>
                <mxCell id="101" value="&lt;div style=&quot;font-size: 16px&quot;&gt;&lt;div style=&quot;font-size: 16px&quot;&gt;&lt;div style=&quot;font-size: 16px&quot;&gt;&lt;div style=&quot;font-size: 16px&quot;&gt;&lt;div style=&quot;font-size: 16px&quot;&gt;女防&lt;br&gt;&lt;/div&gt;&lt;/div&gt;&lt;/div&gt;&lt;/div&gt;&lt;div style=&quot;font-size: 16px&quot;&gt;&lt;/div&gt;&lt;/div&gt;" style="rounded=1;whiteSpace=wrap;html=1;fillColor=#E6E6E6;fontColor=#000000;fontSize=16;strokeColor=none;strokeWidth=2;" parent="3" vertex="1">
                    <mxGeometry x="121" y="670" width="50" height="30" as="geometry"/>
                </mxCell>
                <mxCell id="106" style="edgeStyle=orthogonalEdgeStyle;shape=connector;rounded=1;html=1;exitX=0.5;exitY=1;exitDx=0;exitDy=0;entryX=0.5;entryY=0;entryDx=0;entryDy=0;labelBackgroundColor=default;fontFamily=Helvetica;fontSize=16;fontColor=#000000;endArrow=blockThin;endFill=1;strokeColor=#000000;strokeWidth=1;" parent="3" source="103" target="105" edge="1">
                    <mxGeometry relative="1" as="geometry"/>
                </mxCell>
                <mxCell id="103" value="&lt;div style=&quot;font-size: 16px&quot;&gt;&lt;div style=&quot;font-size: 16px&quot;&gt;&lt;div style=&quot;font-size: 16px&quot;&gt;&lt;div style=&quot;font-size: 16px&quot;&gt;&lt;div style=&quot;font-size: 16px&quot;&gt;旁皋&lt;br&gt;&lt;/div&gt;&lt;/div&gt;&lt;/div&gt;&lt;/div&gt;&lt;div style=&quot;font-size: 16px&quot;&gt;&lt;/div&gt;&lt;/div&gt;" style="rounded=1;whiteSpace=wrap;html=1;fillColor=#E6E6E6;fontColor=#000000;fontSize=16;strokeColor=none;strokeWidth=2;" parent="3" vertex="1">
                    <mxGeometry x="121" y="720" width="50" height="30" as="geometry"/>
                </mxCell>
                <mxCell id="108" style="edgeStyle=orthogonalEdgeStyle;shape=connector;rounded=1;html=1;exitX=0.5;exitY=1;exitDx=0;exitDy=0;labelBackgroundColor=default;fontFamily=Helvetica;fontSize=16;fontColor=#000000;endArrow=blockThin;endFill=1;strokeColor=#000000;strokeWidth=1;" parent="3" source="105" target="107" edge="1">
                    <mxGeometry relative="1" as="geometry"/>
                </mxCell>
                <mxCell id="105" value="&lt;div style=&quot;font-size: 16px&quot;&gt;&lt;div style=&quot;font-size: 16px&quot;&gt;&lt;div style=&quot;font-size: 16px&quot;&gt;&lt;div style=&quot;font-size: 16px&quot;&gt;&lt;div style=&quot;font-size: 16px&quot;&gt;太几&lt;br&gt;&lt;/div&gt;&lt;/div&gt;&lt;/div&gt;&lt;/div&gt;&lt;div style=&quot;font-size: 16px&quot;&gt;&lt;/div&gt;&lt;/div&gt;" style="rounded=1;whiteSpace=wrap;html=1;fillColor=#E6E6E6;fontColor=#000000;fontSize=16;strokeColor=none;strokeWidth=2;" parent="3" vertex="1">
                    <mxGeometry x="121" y="770" width="50" height="30" as="geometry"/>
                </mxCell>
                <mxCell id="110" style="edgeStyle=orthogonalEdgeStyle;shape=connector;rounded=1;html=1;exitX=0.5;exitY=1;exitDx=0;exitDy=0;entryX=0.5;entryY=0;entryDx=0;entryDy=0;labelBackgroundColor=default;fontFamily=Helvetica;fontSize=16;fontColor=#000000;endArrow=blockThin;endFill=1;strokeColor=#000000;strokeWidth=1;" parent="3" source="107" target="109" edge="1">
                    <mxGeometry relative="1" as="geometry"/>
                </mxCell>
                <mxCell id="119" style="edgeStyle=orthogonalEdgeStyle;shape=connector;rounded=1;html=1;exitX=0.5;exitY=1;exitDx=0;exitDy=0;labelBackgroundColor=default;fontFamily=Helvetica;fontSize=16;fontColor=#000000;endArrow=blockThin;endFill=1;strokeColor=#000000;strokeWidth=1;" parent="3" source="107" target="118" edge="1">
                    <mxGeometry relative="1" as="geometry"/>
                </mxCell>
                <mxCell id="107" value="&lt;div style=&quot;font-size: 16px&quot;&gt;&lt;div style=&quot;font-size: 16px&quot;&gt;&lt;div style=&quot;font-size: 16px&quot;&gt;&lt;div style=&quot;font-size: 16px&quot;&gt;&lt;div style=&quot;font-size: 16px&quot;&gt;大骆&lt;br&gt;&lt;/div&gt;&lt;/div&gt;&lt;/div&gt;&lt;/div&gt;&lt;div style=&quot;font-size: 16px&quot;&gt;&lt;/div&gt;&lt;/div&gt;" style="rounded=1;whiteSpace=wrap;html=1;fillColor=#E6E6E6;fontColor=#000000;fontSize=16;strokeColor=none;strokeWidth=2;" parent="3" vertex="1">
                    <mxGeometry x="121" y="820" width="50" height="30" as="geometry"/>
                </mxCell>
                <mxCell id="109" value="&lt;div style=&quot;font-size: 16px&quot;&gt;&lt;div style=&quot;font-size: 16px&quot;&gt;&lt;div style=&quot;font-size: 16px&quot;&gt;&lt;div style=&quot;font-size: 16px&quot;&gt;&lt;div style=&quot;font-size: 16px&quot;&gt;非子&lt;br&gt;&lt;/div&gt;&lt;/div&gt;&lt;/div&gt;&lt;/div&gt;&lt;div style=&quot;font-size: 16px&quot;&gt;&lt;/div&gt;&lt;/div&gt;" style="rounded=1;whiteSpace=wrap;html=1;fillColor=#E6E6E6;fontColor=#000000;fontSize=16;strokeColor=none;strokeWidth=2;" parent="3" vertex="1">
                    <mxGeometry x="121" y="870" width="50" height="30" as="geometry"/>
                </mxCell>
                <mxCell id="116" value="&lt;div style=&quot;font-size: 16px&quot;&gt;&lt;div style=&quot;font-size: 16px&quot;&gt;&lt;div style=&quot;font-size: 16px&quot;&gt;&lt;div style=&quot;font-size: 16px&quot;&gt;【赵世系】&lt;/div&gt;&lt;/div&gt;&lt;/div&gt;&lt;/div&gt;" style="rounded=1;whiteSpace=wrap;html=1;fillColor=#FFFF00;fontColor=#000000;fontSize=16;strokeColor=none;strokeWidth=2;" parent="3" vertex="1">
                    <mxGeometry x="269" y="830" width="91" height="30" as="geometry"/>
                </mxCell>
                <mxCell id="123" style="edgeStyle=orthogonalEdgeStyle;shape=connector;rounded=1;html=1;exitX=0.5;exitY=1;exitDx=0;exitDy=0;entryX=0.5;entryY=0;entryDx=0;entryDy=0;labelBackgroundColor=default;fontFamily=Helvetica;fontSize=16;fontColor=#000000;endArrow=blockThin;endFill=1;strokeColor=#000000;strokeWidth=1;" parent="3" source="118" target="121" edge="1">
                    <mxGeometry relative="1" as="geometry"/>
                </mxCell>
                <mxCell id="118" value="&lt;div style=&quot;font-size: 16px&quot;&gt;&lt;div style=&quot;font-size: 16px&quot;&gt;&lt;div style=&quot;font-size: 16px&quot;&gt;&lt;div style=&quot;font-size: 16px&quot;&gt;&lt;div style=&quot;font-size: 16px&quot;&gt;成&lt;br&gt;&lt;/div&gt;&lt;/div&gt;&lt;/div&gt;&lt;/div&gt;&lt;div style=&quot;font-size: 16px&quot;&gt;&lt;/div&gt;&lt;/div&gt;" style="rounded=1;whiteSpace=wrap;html=1;fillColor=#E6E6E6;fontColor=#000000;fontSize=16;strokeColor=none;strokeWidth=2;" parent="3" vertex="1">
                    <mxGeometry x="180" y="870" width="50" height="30" as="geometry"/>
                </mxCell>
                <mxCell id="120" value="&lt;div style=&quot;font-size: 14px&quot;&gt;&lt;div style=&quot;font-size: 14px&quot;&gt;&lt;div style=&quot;font-size: 14px&quot;&gt;&lt;div style=&quot;font-size: 14px&quot;&gt;&lt;div&gt;秦赢&lt;/div&gt;&lt;/div&gt;&lt;/div&gt;&lt;/div&gt;&lt;/div&gt;" style="text;html=1;align=center;verticalAlign=middle;resizable=0;points=[];autosize=1;strokeColor=none;fillColor=none;fontSize=14;fontColor=#000000;" parent="3" vertex="1">
                    <mxGeometry x="229" y="875" width="40" height="20" as="geometry"/>
                </mxCell>
                <mxCell id="130" style="edgeStyle=orthogonalEdgeStyle;shape=connector;rounded=1;html=1;exitX=0.5;exitY=1;exitDx=0;exitDy=0;entryX=0.5;entryY=0;entryDx=0;entryDy=0;labelBackgroundColor=default;fontFamily=Helvetica;fontSize=16;fontColor=#000000;endArrow=blockThin;endFill=1;strokeColor=#000000;strokeWidth=1;" parent="3" source="121" target="124" edge="1">
                    <mxGeometry relative="1" as="geometry"/>
                </mxCell>
                <mxCell id="121" value="&lt;div style=&quot;font-size: 16px&quot;&gt;&lt;div style=&quot;font-size: 16px&quot;&gt;&lt;div style=&quot;font-size: 16px&quot;&gt;&lt;div style=&quot;font-size: 16px&quot;&gt;&lt;div style=&quot;font-size: 16px&quot;&gt;？&lt;br&gt;&lt;/div&gt;&lt;/div&gt;&lt;/div&gt;&lt;/div&gt;&lt;div style=&quot;font-size: 16px&quot;&gt;&lt;/div&gt;&lt;/div&gt;" style="rounded=1;whiteSpace=wrap;html=1;fillColor=#E6E6E6;fontColor=#000000;fontSize=16;strokeColor=none;strokeWidth=2;" parent="3" vertex="1">
                    <mxGeometry x="180" y="921" width="50" height="30" as="geometry"/>
                </mxCell>
                <mxCell id="122" value="&lt;div style=&quot;font-size: 14px&quot;&gt;&lt;div style=&quot;font-size: 14px&quot;&gt;&lt;div style=&quot;font-size: 14px&quot;&gt;&lt;div style=&quot;font-size: 14px&quot;&gt;&lt;div&gt;秦侯&lt;/div&gt;&lt;/div&gt;&lt;/div&gt;&lt;/div&gt;&lt;/div&gt;" style="text;html=1;align=center;verticalAlign=middle;resizable=0;points=[];autosize=1;strokeColor=none;fillColor=none;fontSize=14;fontColor=#000000;" parent="3" vertex="1">
                    <mxGeometry x="229" y="926" width="40" height="20" as="geometry"/>
                </mxCell>
                <mxCell id="131" style="edgeStyle=orthogonalEdgeStyle;shape=connector;rounded=1;html=1;exitX=0.5;exitY=1;exitDx=0;exitDy=0;entryX=0.5;entryY=0;entryDx=0;entryDy=0;labelBackgroundColor=default;fontFamily=Helvetica;fontSize=16;fontColor=#000000;endArrow=blockThin;endFill=1;strokeColor=#000000;strokeWidth=1;" parent="3" source="124" target="126" edge="1">
                    <mxGeometry relative="1" as="geometry"/>
                </mxCell>
                <mxCell id="124" value="&lt;div style=&quot;font-size: 16px&quot;&gt;&lt;div style=&quot;font-size: 16px&quot;&gt;&lt;div style=&quot;font-size: 16px&quot;&gt;&lt;div style=&quot;font-size: 16px&quot;&gt;&lt;div style=&quot;font-size: 16px&quot;&gt;？&lt;br&gt;&lt;/div&gt;&lt;/div&gt;&lt;/div&gt;&lt;/div&gt;&lt;div style=&quot;font-size: 16px&quot;&gt;&lt;/div&gt;&lt;/div&gt;" style="rounded=1;whiteSpace=wrap;html=1;fillColor=#E6E6E6;fontColor=#000000;fontSize=16;strokeColor=none;strokeWidth=2;" parent="3" vertex="1">
                    <mxGeometry x="180" y="970" width="50" height="30" as="geometry"/>
                </mxCell>
                <mxCell id="125" value="&lt;div style=&quot;font-size: 14px&quot;&gt;&lt;div style=&quot;font-size: 14px&quot;&gt;&lt;div style=&quot;font-size: 14px&quot;&gt;&lt;div style=&quot;font-size: 14px&quot;&gt;&lt;div&gt;公伯&lt;/div&gt;&lt;/div&gt;&lt;/div&gt;&lt;/div&gt;&lt;/div&gt;" style="text;html=1;align=center;verticalAlign=middle;resizable=0;points=[];autosize=1;strokeColor=none;fillColor=none;fontSize=14;fontColor=#000000;" parent="3" vertex="1">
                    <mxGeometry x="229" y="975" width="40" height="20" as="geometry"/>
                </mxCell>
                <mxCell id="132" style="edgeStyle=orthogonalEdgeStyle;shape=connector;rounded=1;html=1;exitX=0.5;exitY=1;exitDx=0;exitDy=0;labelBackgroundColor=default;fontFamily=Helvetica;fontSize=16;fontColor=#000000;endArrow=blockThin;endFill=1;strokeColor=#000000;strokeWidth=1;" parent="3" source="126" target="128" edge="1">
                    <mxGeometry relative="1" as="geometry"/>
                </mxCell>
                <mxCell id="126" value="&lt;div style=&quot;font-size: 16px&quot;&gt;&lt;div style=&quot;font-size: 16px&quot;&gt;&lt;div style=&quot;font-size: 16px&quot;&gt;&lt;div style=&quot;font-size: 16px&quot;&gt;&lt;div style=&quot;font-size: 16px&quot;&gt;？&lt;br&gt;&lt;/div&gt;&lt;/div&gt;&lt;/div&gt;&lt;/div&gt;&lt;div style=&quot;font-size: 16px&quot;&gt;&lt;/div&gt;&lt;/div&gt;" style="rounded=1;whiteSpace=wrap;html=1;fillColor=#E6E6E6;fontColor=#000000;fontSize=16;strokeColor=none;strokeWidth=2;" parent="3" vertex="1">
                    <mxGeometry x="180" y="1020" width="50" height="30" as="geometry"/>
                </mxCell>
                <mxCell id="127" value="&lt;div style=&quot;font-size: 14px&quot;&gt;&lt;div style=&quot;font-size: 14px&quot;&gt;&lt;div style=&quot;font-size: 14px&quot;&gt;&lt;div style=&quot;font-size: 14px&quot;&gt;&lt;div&gt;秦仲&lt;/div&gt;&lt;/div&gt;&lt;/div&gt;&lt;/div&gt;&lt;/div&gt;" style="text;html=1;align=center;verticalAlign=middle;resizable=0;points=[];autosize=1;strokeColor=none;fillColor=none;fontSize=14;fontColor=#000000;" parent="3" vertex="1">
                    <mxGeometry x="229" y="1025" width="40" height="20" as="geometry"/>
                </mxCell>
                <mxCell id="135" style="edgeStyle=orthogonalEdgeStyle;shape=connector;rounded=1;html=1;exitX=0.5;exitY=1;exitDx=0;exitDy=0;entryX=0.5;entryY=0;entryDx=0;entryDy=0;labelBackgroundColor=default;fontFamily=Helvetica;fontSize=16;fontColor=#000000;endArrow=blockThin;endFill=1;strokeColor=#000000;strokeWidth=1;" parent="3" source="128" target="134" edge="1">
                    <mxGeometry relative="1" as="geometry"/>
                </mxCell>
                <mxCell id="138" style="edgeStyle=orthogonalEdgeStyle;shape=connector;rounded=1;html=1;exitX=0.5;exitY=1;exitDx=0;exitDy=0;entryX=0.5;entryY=0;entryDx=0;entryDy=0;labelBackgroundColor=default;fontFamily=Helvetica;fontSize=16;fontColor=#000000;endArrow=blockThin;endFill=1;strokeColor=#000000;strokeWidth=1;" parent="3" source="128" target="136" edge="1">
                    <mxGeometry relative="1" as="geometry"/>
                </mxCell>
                <mxCell id="140" style="edgeStyle=orthogonalEdgeStyle;shape=connector;rounded=1;html=1;exitX=0.5;exitY=1;exitDx=0;exitDy=0;entryX=0.5;entryY=0;entryDx=0;entryDy=0;labelBackgroundColor=default;fontFamily=Helvetica;fontSize=16;fontColor=#000000;endArrow=blockThin;endFill=1;strokeColor=#000000;strokeWidth=1;" parent="3" source="128" target="139" edge="1">
                    <mxGeometry relative="1" as="geometry"/>
                </mxCell>
                <mxCell id="128" value="&lt;div style=&quot;font-size: 16px&quot;&gt;&lt;div style=&quot;font-size: 16px&quot;&gt;&lt;div style=&quot;font-size: 16px&quot;&gt;&lt;div style=&quot;font-size: 16px&quot;&gt;&lt;div style=&quot;font-size: 16px&quot;&gt;？&lt;br&gt;&lt;/div&gt;&lt;/div&gt;&lt;/div&gt;&lt;/div&gt;&lt;div style=&quot;font-size: 16px&quot;&gt;&lt;/div&gt;&lt;/div&gt;" style="rounded=1;whiteSpace=wrap;html=1;fillColor=#E6E6E6;fontColor=#000000;fontSize=16;strokeColor=none;strokeWidth=2;" parent="3" vertex="1">
                    <mxGeometry x="180" y="1070" width="50" height="30" as="geometry"/>
                </mxCell>
                <mxCell id="129" value="&lt;div style=&quot;font-size: 14px&quot;&gt;&lt;div style=&quot;font-size: 14px&quot;&gt;&lt;div style=&quot;font-size: 14px&quot;&gt;&lt;div style=&quot;font-size: 14px&quot;&gt;&lt;div&gt;庄公&lt;/div&gt;&lt;/div&gt;&lt;/div&gt;&lt;/div&gt;&lt;/div&gt;" style="text;html=1;align=center;verticalAlign=middle;resizable=0;points=[];autosize=1;strokeColor=none;fillColor=none;fontSize=14;fontColor=#000000;" parent="3" vertex="1">
                    <mxGeometry x="229" y="1075" width="40" height="20" as="geometry"/>
                </mxCell>
                <mxCell id="133" value="&lt;div style=&quot;font-size: 14px&quot;&gt;&lt;div style=&quot;font-size: 14px&quot;&gt;&lt;div style=&quot;font-size: 14px&quot;&gt;&lt;div style=&quot;font-size: 14px&quot;&gt;&lt;div&gt;世父&lt;/div&gt;&lt;/div&gt;&lt;/div&gt;&lt;/div&gt;&lt;/div&gt;" style="text;html=1;align=center;verticalAlign=middle;resizable=0;points=[];autosize=1;strokeColor=none;fillColor=none;fontSize=14;fontColor=#000000;" parent="3" vertex="1">
                    <mxGeometry x="229" y="1135" width="40" height="20" as="geometry"/>
                </mxCell>
                <mxCell id="134" value="&lt;div style=&quot;font-size: 16px&quot;&gt;&lt;div style=&quot;font-size: 16px&quot;&gt;&lt;div style=&quot;font-size: 16px&quot;&gt;&lt;div style=&quot;font-size: 16px&quot;&gt;&lt;div style=&quot;font-size: 16px&quot;&gt;？&lt;br&gt;&lt;/div&gt;&lt;/div&gt;&lt;/div&gt;&lt;/div&gt;&lt;div style=&quot;font-size: 16px&quot;&gt;&lt;/div&gt;&lt;/div&gt;" style="rounded=1;whiteSpace=wrap;html=1;fillColor=#E6E6E6;fontColor=#000000;fontSize=16;strokeColor=none;strokeWidth=2;" parent="3" vertex="1">
                    <mxGeometry x="180" y="1130" width="50" height="30" as="geometry"/>
                </mxCell>
                <mxCell id="144" style="edgeStyle=orthogonalEdgeStyle;shape=connector;rounded=1;html=1;exitX=0.5;exitY=1;exitDx=0;exitDy=0;entryX=0.5;entryY=0;entryDx=0;entryDy=0;labelBackgroundColor=default;fontFamily=Helvetica;fontSize=16;fontColor=#000000;endArrow=blockThin;endFill=1;strokeColor=#000000;strokeWidth=1;" parent="3" source="136" target="142" edge="1">
                    <mxGeometry relative="1" as="geometry"/>
                </mxCell>
                <mxCell id="136" value="&lt;div style=&quot;font-size: 16px&quot;&gt;&lt;div style=&quot;font-size: 16px&quot;&gt;&lt;div style=&quot;font-size: 16px&quot;&gt;&lt;div style=&quot;font-size: 16px&quot;&gt;&lt;div style=&quot;font-size: 16px&quot;&gt;？&lt;br&gt;&lt;/div&gt;&lt;/div&gt;&lt;/div&gt;&lt;/div&gt;&lt;div style=&quot;font-size: 16px&quot;&gt;&lt;/div&gt;&lt;/div&gt;" style="rounded=1;whiteSpace=wrap;html=1;fillColor=#E6E6E6;fontColor=#000000;fontSize=16;strokeColor=none;strokeWidth=2;" parent="3" vertex="1">
                    <mxGeometry x="296" y="1130" width="50" height="30" as="geometry"/>
                </mxCell>
                <mxCell id="137" value="&lt;div style=&quot;font-size: 14px&quot;&gt;&lt;div style=&quot;font-size: 14px&quot;&gt;&lt;div style=&quot;font-size: 14px&quot;&gt;&lt;div style=&quot;font-size: 14px&quot;&gt;&lt;div&gt;襄公&lt;/div&gt;&lt;/div&gt;&lt;/div&gt;&lt;/div&gt;&lt;/div&gt;" style="text;html=1;align=center;verticalAlign=middle;resizable=0;points=[];autosize=1;strokeColor=none;fillColor=none;fontSize=14;fontColor=#000000;" parent="3" vertex="1">
                    <mxGeometry x="345" y="1135" width="40" height="20" as="geometry"/>
                </mxCell>
                <mxCell id="139" value="&lt;div style=&quot;font-size: 16px&quot;&gt;&lt;div style=&quot;font-size: 16px&quot;&gt;&lt;div style=&quot;font-size: 16px&quot;&gt;&lt;div style=&quot;font-size: 16px&quot;&gt;&lt;div style=&quot;font-size: 16px&quot;&gt;穆赢&lt;font color=&quot;#ff3333&quot;&gt;♀&lt;/font&gt;&lt;br&gt;&lt;/div&gt;&lt;/div&gt;&lt;/div&gt;&lt;/div&gt;&lt;div style=&quot;font-size: 16px&quot;&gt;&lt;/div&gt;&lt;/div&gt;" style="rounded=1;whiteSpace=wrap;html=1;fillColor=#E6E6E6;fontColor=#000000;fontSize=16;strokeColor=none;strokeWidth=2;" parent="3" vertex="1">
                    <mxGeometry x="390" y="1130" width="60" height="30" as="geometry"/>
                </mxCell>
                <mxCell id="43" value="&lt;font color=&quot;#ffff00&quot;&gt;1&lt;/font&gt;" style="ellipse;whiteSpace=wrap;html=1;aspect=fixed;fontFamily=Helvetica;fontSize=10;fontColor=#ffffff;fillColor=#a20025;strokeColor=#6F0000;" parent="3" vertex="1">
                    <mxGeometry x="276" y="1135.5" width="19.5" height="19.5" as="geometry"/>
                </mxCell>
                <mxCell id="141" value="&lt;font color=&quot;#ffff00&quot;&gt;2&lt;/font&gt;" style="ellipse;whiteSpace=wrap;html=1;aspect=fixed;fontFamily=Helvetica;fontSize=10;fontColor=#ffffff;fillColor=#a20025;strokeColor=#6F0000;" parent="3" vertex="1">
                    <mxGeometry x="276" y="1195.5" width="19.5" height="19.5" as="geometry"/>
                </mxCell>
                <mxCell id="147" style="edgeStyle=orthogonalEdgeStyle;shape=connector;rounded=1;html=1;exitX=0.5;exitY=1;exitDx=0;exitDy=0;labelBackgroundColor=default;fontFamily=Helvetica;fontSize=16;fontColor=#000000;endArrow=blockThin;endFill=1;strokeColor=#000000;strokeWidth=1;" parent="3" source="142" target="145" edge="1">
                    <mxGeometry relative="1" as="geometry"/>
                </mxCell>
                <mxCell id="142" value="&lt;div style=&quot;font-size: 16px&quot;&gt;&lt;div style=&quot;font-size: 16px&quot;&gt;&lt;div style=&quot;font-size: 16px&quot;&gt;&lt;div style=&quot;font-size: 16px&quot;&gt;&lt;div style=&quot;font-size: 16px&quot;&gt;？&lt;br&gt;&lt;/div&gt;&lt;/div&gt;&lt;/div&gt;&lt;/div&gt;&lt;div style=&quot;font-size: 16px&quot;&gt;&lt;/div&gt;&lt;/div&gt;" style="rounded=1;whiteSpace=wrap;html=1;fillColor=#E6E6E6;fontColor=#000000;fontSize=16;strokeColor=none;strokeWidth=2;" parent="3" vertex="1">
                    <mxGeometry x="296" y="1190" width="50" height="30" as="geometry"/>
                </mxCell>
                <mxCell id="143" value="&lt;div style=&quot;font-size: 14px&quot;&gt;&lt;div style=&quot;font-size: 14px&quot;&gt;&lt;div style=&quot;font-size: 14px&quot;&gt;&lt;div style=&quot;font-size: 14px&quot;&gt;&lt;div&gt;文公&lt;/div&gt;&lt;/div&gt;&lt;/div&gt;&lt;/div&gt;&lt;/div&gt;" style="text;html=1;align=center;verticalAlign=middle;resizable=0;points=[];autosize=1;strokeColor=none;fillColor=none;fontSize=14;fontColor=#000000;" parent="3" vertex="1">
                    <mxGeometry x="345" y="1195" width="40" height="20" as="geometry"/>
                </mxCell>
                <mxCell id="151" style="edgeStyle=orthogonalEdgeStyle;shape=connector;rounded=1;html=1;exitX=0.5;exitY=1;exitDx=0;exitDy=0;entryX=0.5;entryY=0;entryDx=0;entryDy=0;labelBackgroundColor=default;fontFamily=Helvetica;fontSize=16;fontColor=#000000;endArrow=blockThin;endFill=1;strokeColor=#000000;strokeWidth=1;" parent="3" source="145" target="149" edge="1">
                    <mxGeometry relative="1" as="geometry"/>
                </mxCell>
                <mxCell id="145" value="&lt;div style=&quot;font-size: 16px&quot;&gt;&lt;div style=&quot;font-size: 16px&quot;&gt;&lt;div style=&quot;font-size: 16px&quot;&gt;&lt;div style=&quot;font-size: 16px&quot;&gt;&lt;div style=&quot;font-size: 16px&quot;&gt;？&lt;br&gt;&lt;/div&gt;&lt;/div&gt;&lt;/div&gt;&lt;/div&gt;&lt;div style=&quot;font-size: 16px&quot;&gt;&lt;/div&gt;&lt;/div&gt;" style="rounded=1;whiteSpace=wrap;html=1;fillColor=#E6E6E6;fontColor=#000000;fontSize=16;strokeColor=none;strokeWidth=2;" parent="3" vertex="1">
                    <mxGeometry x="296" y="1250" width="50" height="30" as="geometry"/>
                </mxCell>
                <mxCell id="146" value="&lt;div style=&quot;font-size: 14px&quot;&gt;&lt;div style=&quot;font-size: 14px&quot;&gt;&lt;div style=&quot;font-size: 14px&quot;&gt;&lt;div style=&quot;font-size: 14px&quot;&gt;&lt;div&gt;竫公&lt;/div&gt;&lt;/div&gt;&lt;/div&gt;&lt;/div&gt;&lt;/div&gt;" style="text;html=1;align=center;verticalAlign=middle;resizable=0;points=[];autosize=1;strokeColor=none;fillColor=none;fontSize=14;fontColor=#000000;" parent="3" vertex="1">
                    <mxGeometry x="345" y="1255" width="40" height="20" as="geometry"/>
                </mxCell>
                <mxCell id="148" value="&lt;font color=&quot;#ffff00&quot;&gt;3&lt;/font&gt;" style="ellipse;whiteSpace=wrap;html=1;aspect=fixed;fontFamily=Helvetica;fontSize=10;fontColor=#ffffff;fillColor=#a20025;strokeColor=#6F0000;" parent="3" vertex="1">
                    <mxGeometry x="276" y="1315.5" width="19.5" height="19.5" as="geometry"/>
                </mxCell>
                <mxCell id="161" style="edgeStyle=orthogonalEdgeStyle;shape=connector;rounded=1;html=1;exitX=0.5;exitY=1;exitDx=0;exitDy=0;entryX=0.5;entryY=0;entryDx=0;entryDy=0;labelBackgroundColor=default;fontFamily=Helvetica;fontSize=16;fontColor=#000000;endArrow=blockThin;endFill=1;strokeColor=#000000;strokeWidth=1;" parent="3" source="149" target="153" edge="1">
                    <mxGeometry relative="1" as="geometry"/>
                </mxCell>
                <mxCell id="162" style="edgeStyle=orthogonalEdgeStyle;shape=connector;rounded=1;html=1;exitX=0.5;exitY=1;exitDx=0;exitDy=0;labelBackgroundColor=default;fontFamily=Helvetica;fontSize=16;fontColor=#000000;endArrow=blockThin;endFill=1;strokeColor=#000000;strokeWidth=1;" parent="3" source="149" target="156" edge="1">
                    <mxGeometry relative="1" as="geometry"/>
                </mxCell>
                <mxCell id="163" style="edgeStyle=orthogonalEdgeStyle;shape=connector;rounded=1;html=1;exitX=0.5;exitY=1;exitDx=0;exitDy=0;labelBackgroundColor=default;fontFamily=Helvetica;fontSize=16;fontColor=#000000;endArrow=blockThin;endFill=1;strokeColor=#000000;strokeWidth=1;" parent="3" source="149" target="158" edge="1">
                    <mxGeometry relative="1" as="geometry"/>
                </mxCell>
                <mxCell id="149" value="&lt;div style=&quot;font-size: 16px&quot;&gt;&lt;div style=&quot;font-size: 16px&quot;&gt;&lt;div style=&quot;font-size: 16px&quot;&gt;&lt;div style=&quot;font-size: 16px&quot;&gt;&lt;div style=&quot;font-size: 16px&quot;&gt;？&lt;br&gt;&lt;/div&gt;&lt;/div&gt;&lt;/div&gt;&lt;/div&gt;&lt;div style=&quot;font-size: 16px&quot;&gt;&lt;/div&gt;&lt;/div&gt;" style="rounded=1;whiteSpace=wrap;html=1;fillColor=#E6E6E6;fontColor=#000000;fontSize=16;strokeColor=none;strokeWidth=2;" parent="3" vertex="1">
                    <mxGeometry x="296" y="1310" width="50" height="30" as="geometry"/>
                </mxCell>
                <mxCell id="150" value="&lt;div style=&quot;font-size: 14px&quot;&gt;&lt;div style=&quot;font-size: 14px&quot;&gt;&lt;div style=&quot;font-size: 14px&quot;&gt;&lt;div style=&quot;font-size: 14px&quot;&gt;&lt;div&gt;宁公&lt;/div&gt;&lt;/div&gt;&lt;/div&gt;&lt;/div&gt;&lt;/div&gt;" style="text;html=1;align=center;verticalAlign=middle;resizable=0;points=[];autosize=1;strokeColor=none;fillColor=none;fontSize=14;fontColor=#000000;" parent="3" vertex="1">
                    <mxGeometry x="345" y="1315" width="40" height="20" as="geometry"/>
                </mxCell>
                <mxCell id="152" value="&lt;font color=&quot;#ffff00&quot;&gt;5&lt;/font&gt;" style="ellipse;whiteSpace=wrap;html=1;aspect=fixed;fontFamily=Helvetica;fontSize=10;fontColor=#ffffff;fillColor=#a20025;strokeColor=#6F0000;" parent="3" vertex="1">
                    <mxGeometry x="276" y="1385.5" width="19.5" height="19.5" as="geometry"/>
                </mxCell>
                <mxCell id="165" style="edgeStyle=orthogonalEdgeStyle;shape=connector;rounded=1;html=1;exitX=0.5;exitY=1;exitDx=0;exitDy=0;entryX=0.5;entryY=0;entryDx=0;entryDy=0;labelBackgroundColor=default;fontFamily=Helvetica;fontSize=16;fontColor=#000000;endArrow=blockThin;endFill=1;strokeColor=#000000;strokeWidth=1;" parent="3" source="153" target="164" edge="1">
                    <mxGeometry relative="1" as="geometry"/>
                </mxCell>
                <mxCell id="153" value="&lt;div style=&quot;font-size: 16px&quot;&gt;&lt;div style=&quot;font-size: 16px&quot;&gt;&lt;div style=&quot;font-size: 16px&quot;&gt;&lt;div style=&quot;font-size: 16px&quot;&gt;&lt;div style=&quot;font-size: 16px&quot;&gt;？&lt;br&gt;&lt;/div&gt;&lt;/div&gt;&lt;/div&gt;&lt;/div&gt;&lt;div style=&quot;font-size: 16px&quot;&gt;&lt;/div&gt;&lt;/div&gt;" style="rounded=1;whiteSpace=wrap;html=1;fillColor=#E6E6E6;fontColor=#000000;fontSize=16;strokeColor=none;strokeWidth=2;" parent="3" vertex="1">
                    <mxGeometry x="296" y="1380" width="50" height="30" as="geometry"/>
                </mxCell>
                <mxCell id="154" value="&lt;div style=&quot;font-size: 14px&quot;&gt;&lt;div style=&quot;font-size: 14px&quot;&gt;&lt;div style=&quot;font-size: 14px&quot;&gt;&lt;div style=&quot;font-size: 14px&quot;&gt;&lt;div&gt;武公&lt;/div&gt;&lt;/div&gt;&lt;/div&gt;&lt;/div&gt;&lt;/div&gt;" style="text;html=1;align=center;verticalAlign=middle;resizable=0;points=[];autosize=1;strokeColor=none;fillColor=none;fontSize=14;fontColor=#000000;" parent="3" vertex="1">
                    <mxGeometry x="345" y="1385" width="40" height="20" as="geometry"/>
                </mxCell>
                <mxCell id="155" value="&lt;font color=&quot;#ffff00&quot;&gt;6&lt;/font&gt;" style="ellipse;whiteSpace=wrap;html=1;aspect=fixed;fontFamily=Helvetica;fontSize=10;fontColor=#ffffff;fillColor=#a20025;strokeColor=#6F0000;" parent="3" vertex="1">
                    <mxGeometry x="390" y="1385.5" width="19.5" height="19.5" as="geometry"/>
                </mxCell>
                <mxCell id="170" style="edgeStyle=orthogonalEdgeStyle;shape=connector;rounded=1;html=1;exitX=0.5;exitY=1;exitDx=0;exitDy=0;entryX=0.5;entryY=0;entryDx=0;entryDy=0;labelBackgroundColor=default;fontFamily=Helvetica;fontSize=16;fontColor=#000000;endArrow=blockThin;endFill=1;strokeColor=#000000;strokeWidth=1;" parent="3" source="156" target="167" edge="1">
                    <mxGeometry relative="1" as="geometry"/>
                </mxCell>
                <mxCell id="177" style="edgeStyle=orthogonalEdgeStyle;shape=connector;rounded=1;html=1;exitX=0.5;exitY=1;exitDx=0;exitDy=0;entryX=0.5;entryY=0;entryDx=0;entryDy=0;labelBackgroundColor=default;fontFamily=Helvetica;fontSize=16;fontColor=#000000;endArrow=blockThin;endFill=1;strokeColor=#000000;strokeWidth=1;" parent="3" source="156" target="172" edge="1">
                    <mxGeometry relative="1" as="geometry"/>
                </mxCell>
                <mxCell id="178" style="edgeStyle=orthogonalEdgeStyle;shape=connector;rounded=1;html=1;exitX=0.5;exitY=1;exitDx=0;exitDy=0;entryX=0.5;entryY=0;entryDx=0;entryDy=0;labelBackgroundColor=default;fontFamily=Helvetica;fontSize=16;fontColor=#000000;endArrow=blockThin;endFill=1;strokeColor=#000000;strokeWidth=1;" parent="3" source="156" target="175" edge="1">
                    <mxGeometry relative="1" as="geometry"/>
                </mxCell>
                <mxCell id="156" value="&lt;div style=&quot;font-size: 16px&quot;&gt;&lt;div style=&quot;font-size: 16px&quot;&gt;&lt;div style=&quot;font-size: 16px&quot;&gt;&lt;div style=&quot;font-size: 16px&quot;&gt;&lt;div style=&quot;font-size: 16px&quot;&gt;？&lt;br&gt;&lt;/div&gt;&lt;/div&gt;&lt;/div&gt;&lt;/div&gt;&lt;div style=&quot;font-size: 16px&quot;&gt;&lt;/div&gt;&lt;/div&gt;" style="rounded=1;whiteSpace=wrap;html=1;fillColor=#E6E6E6;fontColor=#000000;fontSize=16;strokeColor=none;strokeWidth=2;" parent="3" vertex="1">
                    <mxGeometry x="410" y="1380" width="50" height="30" as="geometry"/>
                </mxCell>
                <mxCell id="157" value="&lt;div style=&quot;font-size: 14px&quot;&gt;&lt;div style=&quot;font-size: 14px&quot;&gt;&lt;div style=&quot;font-size: 14px&quot;&gt;&lt;div style=&quot;font-size: 14px&quot;&gt;&lt;div&gt;德公&lt;/div&gt;&lt;/div&gt;&lt;/div&gt;&lt;/div&gt;&lt;/div&gt;" style="text;html=1;align=center;verticalAlign=middle;resizable=0;points=[];autosize=1;strokeColor=none;fillColor=none;fontSize=14;fontColor=#000000;" parent="3" vertex="1">
                    <mxGeometry x="459" y="1385" width="40" height="20" as="geometry"/>
                </mxCell>
                <mxCell id="158" value="&lt;div style=&quot;font-size: 16px&quot;&gt;&lt;div style=&quot;font-size: 16px&quot;&gt;&lt;div style=&quot;font-size: 16px&quot;&gt;&lt;div style=&quot;font-size: 16px&quot;&gt;&lt;div style=&quot;font-size: 16px&quot;&gt;？&lt;br&gt;&lt;/div&gt;&lt;/div&gt;&lt;/div&gt;&lt;/div&gt;&lt;div style=&quot;font-size: 16px&quot;&gt;&lt;/div&gt;&lt;/div&gt;" style="rounded=1;whiteSpace=wrap;html=1;fillColor=#E6E6E6;fontColor=#000000;fontSize=16;strokeColor=none;strokeWidth=2;" parent="3" vertex="1">
                    <mxGeometry x="523" y="1380" width="50" height="30" as="geometry"/>
                </mxCell>
                <mxCell id="159" value="&lt;div style=&quot;font-size: 14px&quot;&gt;&lt;div style=&quot;font-size: 14px&quot;&gt;&lt;div style=&quot;font-size: 14px&quot;&gt;&lt;div style=&quot;font-size: 14px&quot;&gt;&lt;div&gt;出子&lt;/div&gt;&lt;/div&gt;&lt;/div&gt;&lt;/div&gt;&lt;/div&gt;" style="text;html=1;align=center;verticalAlign=middle;resizable=0;points=[];autosize=1;strokeColor=none;fillColor=none;fontSize=14;fontColor=#000000;" parent="3" vertex="1">
                    <mxGeometry x="572" y="1385" width="40" height="20" as="geometry"/>
                </mxCell>
                <mxCell id="160" value="&lt;font color=&quot;#ffff00&quot;&gt;4&lt;/font&gt;" style="ellipse;whiteSpace=wrap;html=1;aspect=fixed;fontFamily=Helvetica;fontSize=10;fontColor=#ffffff;fillColor=#a20025;strokeColor=#6F0000;" parent="3" vertex="1">
                    <mxGeometry x="503" y="1385.5" width="19.5" height="19.5" as="geometry"/>
                </mxCell>
                <mxCell id="164" value="&lt;div style=&quot;font-size: 16px&quot;&gt;&lt;div style=&quot;font-size: 16px&quot;&gt;&lt;div style=&quot;font-size: 16px&quot;&gt;&lt;div style=&quot;font-size: 16px&quot;&gt;&lt;div style=&quot;font-size: 16px&quot;&gt;赢白&lt;br&gt;&lt;/div&gt;&lt;/div&gt;&lt;/div&gt;&lt;/div&gt;&lt;div style=&quot;font-size: 16px&quot;&gt;&lt;/div&gt;&lt;/div&gt;" style="rounded=1;whiteSpace=wrap;html=1;fillColor=#E6E6E6;fontColor=#000000;fontSize=16;strokeColor=none;strokeWidth=2;" parent="3" vertex="1">
                    <mxGeometry x="296" y="1440" width="50" height="30" as="geometry"/>
                </mxCell>
                <mxCell id="166" value="&lt;font color=&quot;#ffff00&quot;&gt;7&lt;/font&gt;" style="ellipse;whiteSpace=wrap;html=1;aspect=fixed;fontFamily=Helvetica;fontSize=10;fontColor=#ffffff;fillColor=#a20025;strokeColor=#6F0000;" parent="3" vertex="1">
                    <mxGeometry x="390" y="1445.5" width="19.5" height="19.5" as="geometry"/>
                </mxCell>
                <mxCell id="167" value="&lt;div style=&quot;font-size: 16px&quot;&gt;&lt;div style=&quot;font-size: 16px&quot;&gt;&lt;div style=&quot;font-size: 16px&quot;&gt;&lt;div style=&quot;font-size: 16px&quot;&gt;&lt;div style=&quot;font-size: 16px&quot;&gt;？&lt;br&gt;&lt;/div&gt;&lt;/div&gt;&lt;/div&gt;&lt;/div&gt;&lt;div style=&quot;font-size: 16px&quot;&gt;&lt;/div&gt;&lt;/div&gt;" style="rounded=1;whiteSpace=wrap;html=1;fillColor=#E6E6E6;fontColor=#000000;fontSize=16;strokeColor=none;strokeWidth=2;" parent="3" vertex="1">
                    <mxGeometry x="410" y="1440" width="50" height="30" as="geometry"/>
                </mxCell>
                <mxCell id="168" value="&lt;div style=&quot;font-size: 14px&quot;&gt;&lt;div style=&quot;font-size: 14px&quot;&gt;&lt;div style=&quot;font-size: 14px&quot;&gt;&lt;div style=&quot;font-size: 14px&quot;&gt;&lt;div&gt;宣公&lt;/div&gt;&lt;/div&gt;&lt;/div&gt;&lt;/div&gt;&lt;/div&gt;" style="text;html=1;align=center;verticalAlign=middle;resizable=0;points=[];autosize=1;strokeColor=none;fillColor=none;fontSize=14;fontColor=#000000;" parent="3" vertex="1">
                    <mxGeometry x="459" y="1445" width="40" height="20" as="geometry"/>
                </mxCell>
                <mxCell id="171" value="&lt;font color=&quot;#ffff00&quot;&gt;8&lt;/font&gt;" style="ellipse;whiteSpace=wrap;html=1;aspect=fixed;fontFamily=Helvetica;fontSize=10;fontColor=#ffffff;fillColor=#a20025;strokeColor=#6F0000;" parent="3" vertex="1">
                    <mxGeometry x="500" y="1445.5" width="19.5" height="19.5" as="geometry"/>
                </mxCell>
                <mxCell id="172" value="&lt;div style=&quot;font-size: 16px&quot;&gt;&lt;div style=&quot;font-size: 16px&quot;&gt;&lt;div style=&quot;font-size: 16px&quot;&gt;&lt;div style=&quot;font-size: 16px&quot;&gt;&lt;div style=&quot;font-size: 16px&quot;&gt;？&lt;br&gt;&lt;/div&gt;&lt;/div&gt;&lt;/div&gt;&lt;/div&gt;&lt;div style=&quot;font-size: 16px&quot;&gt;&lt;/div&gt;&lt;/div&gt;" style="rounded=1;whiteSpace=wrap;html=1;fillColor=#E6E6E6;fontColor=#000000;fontSize=16;strokeColor=none;strokeWidth=2;" parent="3" vertex="1">
                    <mxGeometry x="520" y="1440" width="50" height="30" as="geometry"/>
                </mxCell>
                <mxCell id="173" value="&lt;div style=&quot;font-size: 14px&quot;&gt;&lt;div style=&quot;font-size: 14px&quot;&gt;&lt;div style=&quot;font-size: 14px&quot;&gt;&lt;div style=&quot;font-size: 14px&quot;&gt;&lt;div&gt;成公&lt;/div&gt;&lt;/div&gt;&lt;/div&gt;&lt;/div&gt;&lt;/div&gt;" style="text;html=1;align=center;verticalAlign=middle;resizable=0;points=[];autosize=1;strokeColor=none;fillColor=none;fontSize=14;fontColor=#000000;" parent="3" vertex="1">
                    <mxGeometry x="569" y="1445" width="40" height="20" as="geometry"/>
                </mxCell>
                <mxCell id="174" value="&lt;font color=&quot;#ffff00&quot;&gt;9&lt;/font&gt;" style="ellipse;whiteSpace=wrap;html=1;aspect=fixed;fontFamily=Helvetica;fontSize=10;fontColor=#ffffff;fillColor=#a20025;strokeColor=#6F0000;" parent="3" vertex="1">
                    <mxGeometry x="610" y="1445.5" width="19.5" height="19.5" as="geometry"/>
                </mxCell>
                <mxCell id="182" style="edgeStyle=orthogonalEdgeStyle;shape=connector;rounded=1;html=1;exitX=0.5;exitY=1;exitDx=0;exitDy=0;entryX=0.5;entryY=0;entryDx=0;entryDy=0;labelBackgroundColor=default;fontFamily=Helvetica;fontSize=16;fontColor=#000000;endArrow=blockThin;endFill=1;strokeColor=#000000;strokeWidth=1;" parent="3" source="175" target="180" edge="1">
                    <mxGeometry relative="1" as="geometry"/>
                </mxCell>
                <mxCell id="175" value="&lt;div style=&quot;font-size: 16px&quot;&gt;&lt;div style=&quot;font-size: 16px&quot;&gt;&lt;div style=&quot;font-size: 16px&quot;&gt;&lt;div style=&quot;font-size: 16px&quot;&gt;&lt;div style=&quot;font-size: 16px&quot;&gt;赢任好&lt;br&gt;&lt;/div&gt;&lt;/div&gt;&lt;/div&gt;&lt;/div&gt;&lt;div style=&quot;font-size: 16px&quot;&gt;&lt;/div&gt;&lt;/div&gt;" style="rounded=1;whiteSpace=wrap;html=1;fillColor=#E6E6E6;fontColor=#000000;fontSize=16;strokeColor=none;strokeWidth=2;" parent="3" vertex="1">
                    <mxGeometry x="630" y="1440" width="60" height="30" as="geometry"/>
                </mxCell>
                <mxCell id="176" value="&lt;div style=&quot;font-size: 14px&quot;&gt;&lt;div style=&quot;font-size: 14px&quot;&gt;&lt;div style=&quot;font-size: 14px&quot;&gt;&lt;div style=&quot;font-size: 14px&quot;&gt;&lt;div&gt;穆公&lt;/div&gt;&lt;/div&gt;&lt;/div&gt;&lt;/div&gt;&lt;/div&gt;" style="text;html=1;align=center;verticalAlign=middle;resizable=0;points=[];autosize=1;strokeColor=none;fillColor=none;fontSize=14;fontColor=#000000;" parent="3" vertex="1">
                    <mxGeometry x="688" y="1445" width="40" height="20" as="geometry"/>
                </mxCell>
                <mxCell id="179" value="&lt;font color=&quot;#ffff00&quot;&gt;10&lt;/font&gt;" style="ellipse;whiteSpace=wrap;html=1;aspect=fixed;fontFamily=Helvetica;fontSize=10;fontColor=#ffffff;fillColor=#a20025;strokeColor=#6F0000;" parent="3" vertex="1">
                    <mxGeometry x="614" y="1505.5" width="19.5" height="19.5" as="geometry"/>
                </mxCell>
                <mxCell id="186" style="edgeStyle=orthogonalEdgeStyle;shape=connector;rounded=1;html=1;exitX=0.5;exitY=1;exitDx=0;exitDy=0;entryX=0.5;entryY=0;entryDx=0;entryDy=0;labelBackgroundColor=default;fontFamily=Helvetica;fontSize=16;fontColor=#000000;endArrow=blockThin;endFill=1;strokeColor=#000000;strokeWidth=1;" parent="3" source="180" target="184" edge="1">
                    <mxGeometry relative="1" as="geometry"/>
                </mxCell>
                <mxCell id="180" value="&lt;div style=&quot;font-size: 16px&quot;&gt;&lt;div style=&quot;font-size: 16px&quot;&gt;&lt;div style=&quot;font-size: 16px&quot;&gt;&lt;div style=&quot;font-size: 16px&quot;&gt;&lt;div style=&quot;font-size: 16px&quot;&gt;赢瑩&lt;br&gt;&lt;/div&gt;&lt;/div&gt;&lt;/div&gt;&lt;/div&gt;&lt;div style=&quot;font-size: 16px&quot;&gt;&lt;/div&gt;&lt;/div&gt;" style="rounded=1;whiteSpace=wrap;html=1;fillColor=#E6E6E6;fontColor=#000000;fontSize=16;strokeColor=none;strokeWidth=2;" parent="3" vertex="1">
                    <mxGeometry x="635" y="1500" width="50" height="30" as="geometry"/>
                </mxCell>
                <mxCell id="181" value="&lt;div style=&quot;font-size: 14px&quot;&gt;&lt;div style=&quot;font-size: 14px&quot;&gt;&lt;div style=&quot;font-size: 14px&quot;&gt;&lt;div style=&quot;font-size: 14px&quot;&gt;&lt;div&gt;康公&lt;/div&gt;&lt;/div&gt;&lt;/div&gt;&lt;/div&gt;&lt;/div&gt;" style="text;html=1;align=center;verticalAlign=middle;resizable=0;points=[];autosize=1;strokeColor=none;fillColor=none;fontSize=14;fontColor=#000000;" parent="3" vertex="1">
                    <mxGeometry x="684" y="1505" width="40" height="20" as="geometry"/>
                </mxCell>
                <mxCell id="183" value="&lt;font color=&quot;#ffff00&quot;&gt;11&lt;/font&gt;" style="ellipse;whiteSpace=wrap;html=1;aspect=fixed;fontFamily=Helvetica;fontSize=10;fontColor=#ffffff;fillColor=#a20025;strokeColor=#6F0000;" parent="3" vertex="1">
                    <mxGeometry x="614" y="1565.5" width="19.5" height="19.5" as="geometry"/>
                </mxCell>
                <mxCell id="190" style="edgeStyle=orthogonalEdgeStyle;shape=connector;rounded=1;html=1;exitX=0.5;exitY=1;exitDx=0;exitDy=0;entryX=0.5;entryY=0;entryDx=0;entryDy=0;labelBackgroundColor=default;fontFamily=Helvetica;fontSize=16;fontColor=#000000;endArrow=blockThin;endFill=1;strokeColor=#000000;strokeWidth=1;" parent="3" source="184" target="188" edge="1">
                    <mxGeometry relative="1" as="geometry"/>
                </mxCell>
                <mxCell id="184" value="&lt;div style=&quot;font-size: 16px&quot;&gt;&lt;div style=&quot;font-size: 16px&quot;&gt;&lt;div style=&quot;font-size: 16px&quot;&gt;&lt;div style=&quot;font-size: 16px&quot;&gt;&lt;div style=&quot;font-size: 16px&quot;&gt;赢豭&lt;br&gt;&lt;/div&gt;&lt;/div&gt;&lt;/div&gt;&lt;/div&gt;&lt;div style=&quot;font-size: 16px&quot;&gt;&lt;/div&gt;&lt;/div&gt;" style="rounded=1;whiteSpace=wrap;html=1;fillColor=#E6E6E6;fontColor=#000000;fontSize=16;strokeColor=none;strokeWidth=2;" parent="3" vertex="1">
                    <mxGeometry x="635" y="1560" width="50" height="30" as="geometry"/>
                </mxCell>
                <mxCell id="185" value="&lt;div style=&quot;font-size: 14px&quot;&gt;&lt;div style=&quot;font-size: 14px&quot;&gt;&lt;div style=&quot;font-size: 14px&quot;&gt;&lt;div style=&quot;font-size: 14px&quot;&gt;&lt;div&gt;共公&lt;/div&gt;&lt;/div&gt;&lt;/div&gt;&lt;/div&gt;&lt;/div&gt;" style="text;html=1;align=center;verticalAlign=middle;resizable=0;points=[];autosize=1;strokeColor=none;fillColor=none;fontSize=14;fontColor=#000000;" parent="3" vertex="1">
                    <mxGeometry x="684" y="1565" width="40" height="20" as="geometry"/>
                </mxCell>
                <mxCell id="187" value="&lt;font color=&quot;#ffff00&quot;&gt;12&lt;/font&gt;" style="ellipse;whiteSpace=wrap;html=1;aspect=fixed;fontFamily=Helvetica;fontSize=10;fontColor=#ffffff;fillColor=#a20025;strokeColor=#6F0000;" parent="3" vertex="1">
                    <mxGeometry x="614" y="1625.5" width="19.5" height="19.5" as="geometry"/>
                </mxCell>
                <mxCell id="194" style="edgeStyle=orthogonalEdgeStyle;shape=connector;rounded=1;html=1;exitX=0.5;exitY=1;exitDx=0;exitDy=0;labelBackgroundColor=default;fontFamily=Helvetica;fontSize=16;fontColor=#000000;endArrow=blockThin;endFill=1;strokeColor=#000000;strokeWidth=1;" parent="3" source="188" target="192" edge="1">
                    <mxGeometry relative="1" as="geometry"/>
                </mxCell>
                <mxCell id="188" value="&lt;div style=&quot;font-size: 16px&quot;&gt;&lt;div style=&quot;font-size: 16px&quot;&gt;&lt;div style=&quot;font-size: 16px&quot;&gt;&lt;div style=&quot;font-size: 16px&quot;&gt;&lt;div style=&quot;font-size: 16px&quot;&gt;？&lt;br&gt;&lt;/div&gt;&lt;/div&gt;&lt;/div&gt;&lt;/div&gt;&lt;div style=&quot;font-size: 16px&quot;&gt;&lt;/div&gt;&lt;/div&gt;" style="rounded=1;whiteSpace=wrap;html=1;fillColor=#E6E6E6;fontColor=#000000;fontSize=16;strokeColor=none;strokeWidth=2;" parent="3" vertex="1">
                    <mxGeometry x="635" y="1620" width="50" height="30" as="geometry"/>
                </mxCell>
                <mxCell id="189" value="&lt;div style=&quot;font-size: 14px&quot;&gt;&lt;div style=&quot;font-size: 14px&quot;&gt;&lt;div style=&quot;font-size: 14px&quot;&gt;&lt;div style=&quot;font-size: 14px&quot;&gt;&lt;div&gt;桓公&lt;/div&gt;&lt;/div&gt;&lt;/div&gt;&lt;/div&gt;&lt;/div&gt;" style="text;html=1;align=center;verticalAlign=middle;resizable=0;points=[];autosize=1;strokeColor=none;fillColor=none;fontSize=14;fontColor=#000000;" parent="3" vertex="1">
                    <mxGeometry x="684" y="1625" width="40" height="20" as="geometry"/>
                </mxCell>
                <mxCell id="191" value="&lt;font color=&quot;#ffff00&quot;&gt;13&lt;/font&gt;" style="ellipse;whiteSpace=wrap;html=1;aspect=fixed;fontFamily=Helvetica;fontSize=10;fontColor=#ffffff;fillColor=#a20025;strokeColor=#6F0000;" parent="3" vertex="1">
                    <mxGeometry x="614" y="1685.5" width="19.5" height="19.5" as="geometry"/>
                </mxCell>
                <mxCell id="198" style="edgeStyle=orthogonalEdgeStyle;shape=connector;rounded=1;html=1;exitX=0.5;exitY=1;exitDx=0;exitDy=0;entryX=0.5;entryY=0;entryDx=0;entryDy=0;labelBackgroundColor=default;fontFamily=Helvetica;fontSize=16;fontColor=#000000;endArrow=blockThin;endFill=1;strokeColor=#000000;strokeWidth=1;" parent="3" source="192" target="196" edge="1">
                    <mxGeometry relative="1" as="geometry"/>
                </mxCell>
                <mxCell id="192" value="&lt;div style=&quot;font-size: 16px&quot;&gt;&lt;div style=&quot;font-size: 16px&quot;&gt;&lt;div style=&quot;font-size: 16px&quot;&gt;&lt;div style=&quot;font-size: 16px&quot;&gt;&lt;div style=&quot;font-size: 16px&quot;&gt;？&lt;br&gt;&lt;/div&gt;&lt;/div&gt;&lt;/div&gt;&lt;/div&gt;&lt;div style=&quot;font-size: 16px&quot;&gt;&lt;/div&gt;&lt;/div&gt;" style="rounded=1;whiteSpace=wrap;html=1;fillColor=#E6E6E6;fontColor=#000000;fontSize=16;strokeColor=none;strokeWidth=2;" parent="3" vertex="1">
                    <mxGeometry x="635" y="1680" width="50" height="30" as="geometry"/>
                </mxCell>
                <mxCell id="193" value="&lt;div style=&quot;font-size: 14px&quot;&gt;&lt;div style=&quot;font-size: 14px&quot;&gt;&lt;div style=&quot;font-size: 14px&quot;&gt;&lt;div style=&quot;font-size: 14px&quot;&gt;&lt;div&gt;景公&lt;/div&gt;&lt;/div&gt;&lt;/div&gt;&lt;/div&gt;&lt;/div&gt;" style="text;html=1;align=center;verticalAlign=middle;resizable=0;points=[];autosize=1;strokeColor=none;fillColor=none;fontSize=14;fontColor=#000000;" parent="3" vertex="1">
                    <mxGeometry x="684" y="1685" width="40" height="20" as="geometry"/>
                </mxCell>
                <mxCell id="195" value="&lt;font color=&quot;#ffff00&quot;&gt;14&lt;/font&gt;" style="ellipse;whiteSpace=wrap;html=1;aspect=fixed;fontFamily=Helvetica;fontSize=10;fontColor=#ffffff;fillColor=#a20025;strokeColor=#6F0000;" parent="3" vertex="1">
                    <mxGeometry x="614" y="1745.5" width="19.5" height="19.5" as="geometry"/>
                </mxCell>
                <mxCell id="201" style="edgeStyle=orthogonalEdgeStyle;shape=connector;rounded=1;html=1;exitX=0.5;exitY=1;exitDx=0;exitDy=0;entryX=0.5;entryY=0;entryDx=0;entryDy=0;labelBackgroundColor=default;fontFamily=Helvetica;fontSize=16;fontColor=#000000;endArrow=blockThin;endFill=1;strokeColor=#000000;strokeWidth=1;" parent="3" source="196" target="199" edge="1">
                    <mxGeometry relative="1" as="geometry"/>
                </mxCell>
                <mxCell id="196" value="&lt;div style=&quot;font-size: 16px&quot;&gt;&lt;div style=&quot;font-size: 16px&quot;&gt;&lt;div style=&quot;font-size: 16px&quot;&gt;&lt;div style=&quot;font-size: 16px&quot;&gt;&lt;div style=&quot;font-size: 16px&quot;&gt;？&lt;br&gt;&lt;/div&gt;&lt;/div&gt;&lt;/div&gt;&lt;/div&gt;&lt;div style=&quot;font-size: 16px&quot;&gt;&lt;/div&gt;&lt;/div&gt;" style="rounded=1;whiteSpace=wrap;html=1;fillColor=#E6E6E6;fontColor=#000000;fontSize=16;strokeColor=none;strokeWidth=2;" parent="3" vertex="1">
                    <mxGeometry x="635" y="1740" width="50" height="30" as="geometry"/>
                </mxCell>
                <mxCell id="197" value="&lt;div style=&quot;font-size: 14px&quot;&gt;&lt;div style=&quot;font-size: 14px&quot;&gt;&lt;div style=&quot;font-size: 14px&quot;&gt;&lt;div style=&quot;font-size: 14px&quot;&gt;&lt;div&gt;哀公&lt;/div&gt;&lt;/div&gt;&lt;/div&gt;&lt;/div&gt;&lt;/div&gt;" style="text;html=1;align=center;verticalAlign=middle;resizable=0;points=[];autosize=1;strokeColor=none;fillColor=none;fontSize=14;fontColor=#000000;" parent="3" vertex="1">
                    <mxGeometry x="684" y="1745" width="40" height="20" as="geometry"/>
                </mxCell>
                <mxCell id="205" style="edgeStyle=orthogonalEdgeStyle;shape=connector;rounded=1;html=1;exitX=0.5;exitY=1;exitDx=0;exitDy=0;entryX=0.5;entryY=0;entryDx=0;entryDy=0;labelBackgroundColor=default;fontFamily=Helvetica;fontSize=16;fontColor=#000000;endArrow=blockThin;endFill=1;strokeColor=#000000;strokeWidth=1;" parent="3" source="199" target="203" edge="1">
                    <mxGeometry relative="1" as="geometry"/>
                </mxCell>
                <mxCell id="199" value="&lt;div style=&quot;font-size: 16px&quot;&gt;&lt;div style=&quot;font-size: 16px&quot;&gt;&lt;div style=&quot;font-size: 16px&quot;&gt;&lt;div style=&quot;font-size: 16px&quot;&gt;&lt;div style=&quot;font-size: 16px&quot;&gt;？&lt;br&gt;&lt;/div&gt;&lt;/div&gt;&lt;/div&gt;&lt;/div&gt;&lt;div style=&quot;font-size: 16px&quot;&gt;&lt;/div&gt;&lt;/div&gt;" style="rounded=1;whiteSpace=wrap;html=1;fillColor=#E6E6E6;fontColor=#000000;fontSize=16;strokeColor=none;strokeWidth=2;" parent="3" vertex="1">
                    <mxGeometry x="635" y="1800" width="50" height="30" as="geometry"/>
                </mxCell>
                <mxCell id="200" value="&lt;div style=&quot;font-size: 14px&quot;&gt;&lt;div style=&quot;font-size: 14px&quot;&gt;&lt;div style=&quot;font-size: 14px&quot;&gt;&lt;div style=&quot;font-size: 14px&quot;&gt;&lt;div&gt;夷公&lt;/div&gt;&lt;/div&gt;&lt;/div&gt;&lt;/div&gt;&lt;/div&gt;" style="text;html=1;align=center;verticalAlign=middle;resizable=0;points=[];autosize=1;strokeColor=none;fillColor=none;fontSize=14;fontColor=#000000;" parent="3" vertex="1">
                    <mxGeometry x="684" y="1805" width="40" height="20" as="geometry"/>
                </mxCell>
                <mxCell id="202" value="&lt;font color=&quot;#ffff00&quot;&gt;15&lt;/font&gt;" style="ellipse;whiteSpace=wrap;html=1;aspect=fixed;fontFamily=Helvetica;fontSize=10;fontColor=#ffffff;fillColor=#a20025;strokeColor=#6F0000;" parent="3" vertex="1">
                    <mxGeometry x="614" y="1865.5" width="19.5" height="19.5" as="geometry"/>
                </mxCell>
                <mxCell id="209" style="edgeStyle=orthogonalEdgeStyle;shape=connector;rounded=1;html=1;exitX=0.5;exitY=1;exitDx=0;exitDy=0;entryX=0.5;entryY=0;entryDx=0;entryDy=0;labelBackgroundColor=default;fontFamily=Helvetica;fontSize=16;fontColor=#000000;endArrow=blockThin;endFill=1;strokeColor=#000000;strokeWidth=1;" parent="3" source="203" target="207" edge="1">
                    <mxGeometry relative="1" as="geometry"/>
                </mxCell>
                <mxCell id="203" value="&lt;div style=&quot;font-size: 16px&quot;&gt;&lt;div style=&quot;font-size: 16px&quot;&gt;&lt;div style=&quot;font-size: 16px&quot;&gt;&lt;div style=&quot;font-size: 16px&quot;&gt;&lt;div style=&quot;font-size: 16px&quot;&gt;？&lt;br&gt;&lt;/div&gt;&lt;/div&gt;&lt;/div&gt;&lt;/div&gt;&lt;div style=&quot;font-size: 16px&quot;&gt;&lt;/div&gt;&lt;/div&gt;" style="rounded=1;whiteSpace=wrap;html=1;fillColor=#E6E6E6;fontColor=#000000;fontSize=16;strokeColor=none;strokeWidth=2;" parent="3" vertex="1">
                    <mxGeometry x="635" y="1860" width="50" height="30" as="geometry"/>
                </mxCell>
                <mxCell id="204" value="&lt;div style=&quot;font-size: 14px&quot;&gt;&lt;div style=&quot;font-size: 14px&quot;&gt;&lt;div style=&quot;font-size: 14px&quot;&gt;&lt;div style=&quot;font-size: 14px&quot;&gt;&lt;div&gt;惠公&lt;/div&gt;&lt;/div&gt;&lt;/div&gt;&lt;/div&gt;&lt;/div&gt;" style="text;html=1;align=center;verticalAlign=middle;resizable=0;points=[];autosize=1;strokeColor=none;fillColor=none;fontSize=14;fontColor=#000000;" parent="3" vertex="1">
                    <mxGeometry x="684" y="1865" width="40" height="20" as="geometry"/>
                </mxCell>
                <mxCell id="206" value="&lt;font color=&quot;#ffff00&quot;&gt;16&lt;/font&gt;" style="ellipse;whiteSpace=wrap;html=1;aspect=fixed;fontFamily=Helvetica;fontSize=10;fontColor=#ffffff;fillColor=#a20025;strokeColor=#6F0000;" parent="3" vertex="1">
                    <mxGeometry x="614" y="1925.5" width="19.5" height="19.5" as="geometry"/>
                </mxCell>
                <mxCell id="213" style="edgeStyle=orthogonalEdgeStyle;shape=connector;rounded=1;html=1;exitX=0.5;exitY=1;exitDx=0;exitDy=0;entryX=0.5;entryY=0;entryDx=0;entryDy=0;labelBackgroundColor=default;fontFamily=Helvetica;fontSize=16;fontColor=#000000;endArrow=blockThin;endFill=1;strokeColor=#000000;strokeWidth=1;" parent="3" source="207" target="211" edge="1">
                    <mxGeometry relative="1" as="geometry"/>
                </mxCell>
                <mxCell id="207" value="&lt;div style=&quot;font-size: 16px&quot;&gt;&lt;div style=&quot;font-size: 16px&quot;&gt;&lt;div style=&quot;font-size: 16px&quot;&gt;&lt;div style=&quot;font-size: 16px&quot;&gt;&lt;div style=&quot;font-size: 16px&quot;&gt;？&lt;br&gt;&lt;/div&gt;&lt;/div&gt;&lt;/div&gt;&lt;/div&gt;&lt;div style=&quot;font-size: 16px&quot;&gt;&lt;/div&gt;&lt;/div&gt;" style="rounded=1;whiteSpace=wrap;html=1;fillColor=#E6E6E6;fontColor=#000000;fontSize=16;strokeColor=none;strokeWidth=2;" parent="3" vertex="1">
                    <mxGeometry x="635" y="1920" width="50" height="30" as="geometry"/>
                </mxCell>
                <mxCell id="208" value="&lt;div style=&quot;font-size: 14px&quot;&gt;&lt;div style=&quot;font-size: 14px&quot;&gt;&lt;div style=&quot;font-size: 14px&quot;&gt;&lt;div style=&quot;font-size: 14px&quot;&gt;&lt;div&gt;悼公&lt;/div&gt;&lt;/div&gt;&lt;/div&gt;&lt;/div&gt;&lt;/div&gt;" style="text;html=1;align=center;verticalAlign=middle;resizable=0;points=[];autosize=1;strokeColor=none;fillColor=none;fontSize=14;fontColor=#000000;" parent="3" vertex="1">
                    <mxGeometry x="684" y="1925" width="40" height="20" as="geometry"/>
                </mxCell>
                <mxCell id="210" value="&lt;font color=&quot;#ffff00&quot;&gt;17&lt;/font&gt;" style="ellipse;whiteSpace=wrap;html=1;aspect=fixed;fontFamily=Helvetica;fontSize=10;fontColor=#ffffff;fillColor=#a20025;strokeColor=#6F0000;" parent="3" vertex="1">
                    <mxGeometry x="614" y="1985.5" width="19.5" height="19.5" as="geometry"/>
                </mxCell>
                <mxCell id="217" style="edgeStyle=orthogonalEdgeStyle;shape=connector;rounded=1;html=1;exitX=0.5;exitY=1;exitDx=0;exitDy=0;entryX=0.5;entryY=0;entryDx=0;entryDy=0;labelBackgroundColor=default;fontFamily=Helvetica;fontSize=16;fontColor=#000000;endArrow=blockThin;endFill=1;strokeColor=#000000;strokeWidth=1;" parent="3" source="211" target="215" edge="1">
                    <mxGeometry relative="1" as="geometry"/>
                </mxCell>
                <mxCell id="221" style="edgeStyle=orthogonalEdgeStyle;shape=connector;rounded=1;html=1;exitX=0.5;exitY=1;exitDx=0;exitDy=0;entryX=0.5;entryY=0;entryDx=0;entryDy=0;labelBackgroundColor=default;fontFamily=Helvetica;fontSize=16;fontColor=#000000;endArrow=blockThin;endFill=1;strokeColor=#000000;strokeWidth=1;" parent="3" source="211" target="219" edge="1">
                    <mxGeometry relative="1" as="geometry"/>
                </mxCell>
                <mxCell id="211" value="&lt;div style=&quot;font-size: 16px&quot;&gt;&lt;div style=&quot;font-size: 16px&quot;&gt;&lt;div style=&quot;font-size: 16px&quot;&gt;&lt;div style=&quot;font-size: 16px&quot;&gt;&lt;div style=&quot;font-size: 16px&quot;&gt;？&lt;br&gt;&lt;/div&gt;&lt;/div&gt;&lt;/div&gt;&lt;/div&gt;&lt;div style=&quot;font-size: 16px&quot;&gt;&lt;/div&gt;&lt;/div&gt;" style="rounded=1;whiteSpace=wrap;html=1;fillColor=#E6E6E6;fontColor=#000000;fontSize=16;strokeColor=none;strokeWidth=2;" parent="3" vertex="1">
                    <mxGeometry x="635" y="1980" width="50" height="30" as="geometry"/>
                </mxCell>
                <mxCell id="212" value="&lt;div style=&quot;font-size: 14px&quot;&gt;&lt;div style=&quot;font-size: 14px&quot;&gt;&lt;div style=&quot;font-size: 14px&quot;&gt;&lt;div style=&quot;font-size: 14px&quot;&gt;&lt;div&gt;厉共公&lt;/div&gt;&lt;/div&gt;&lt;/div&gt;&lt;/div&gt;&lt;/div&gt;" style="text;html=1;align=center;verticalAlign=middle;resizable=0;points=[];autosize=1;strokeColor=none;fillColor=none;fontSize=14;fontColor=#000000;" parent="3" vertex="1">
                    <mxGeometry x="682" y="1985" width="60" height="20" as="geometry"/>
                </mxCell>
                <mxCell id="214" value="&lt;font color=&quot;#ffff00&quot;&gt;18&lt;/font&gt;" style="ellipse;whiteSpace=wrap;html=1;aspect=fixed;fontFamily=Helvetica;fontSize=10;fontColor=#ffffff;fillColor=#a20025;strokeColor=#6F0000;" parent="3" vertex="1">
                    <mxGeometry x="614" y="2045.5" width="19.5" height="19.5" as="geometry"/>
                </mxCell>
                <mxCell id="215" value="&lt;div style=&quot;font-size: 16px&quot;&gt;&lt;div style=&quot;font-size: 16px&quot;&gt;&lt;div style=&quot;font-size: 16px&quot;&gt;&lt;div style=&quot;font-size: 16px&quot;&gt;&lt;div style=&quot;font-size: 16px&quot;&gt;？&lt;br&gt;&lt;/div&gt;&lt;/div&gt;&lt;/div&gt;&lt;/div&gt;&lt;div style=&quot;font-size: 16px&quot;&gt;&lt;/div&gt;&lt;/div&gt;" style="rounded=1;whiteSpace=wrap;html=1;fillColor=#E6E6E6;fontColor=#000000;fontSize=16;strokeColor=none;strokeWidth=2;" parent="3" vertex="1">
                    <mxGeometry x="635" y="2040" width="50" height="30" as="geometry"/>
                </mxCell>
                <mxCell id="216" value="&lt;div style=&quot;font-size: 14px&quot;&gt;&lt;div style=&quot;font-size: 14px&quot;&gt;&lt;div style=&quot;font-size: 14px&quot;&gt;&lt;div style=&quot;font-size: 14px&quot;&gt;&lt;div&gt;噪公&lt;/div&gt;&lt;/div&gt;&lt;/div&gt;&lt;/div&gt;&lt;/div&gt;" style="text;html=1;align=center;verticalAlign=middle;resizable=0;points=[];autosize=1;strokeColor=none;fillColor=none;fontSize=14;fontColor=#000000;" parent="3" vertex="1">
                    <mxGeometry x="684" y="2045" width="40" height="20" as="geometry"/>
                </mxCell>
                <mxCell id="218" value="&lt;font color=&quot;#ffff00&quot;&gt;19&lt;/font&gt;" style="ellipse;whiteSpace=wrap;html=1;aspect=fixed;fontFamily=Helvetica;fontSize=10;fontColor=#ffffff;fillColor=#a20025;strokeColor=#6F0000;" parent="3" vertex="1">
                    <mxGeometry x="730" y="2045.5" width="19.5" height="19.5" as="geometry"/>
                </mxCell>
                <mxCell id="224" style="edgeStyle=orthogonalEdgeStyle;shape=connector;rounded=1;html=1;exitX=0.5;exitY=1;exitDx=0;exitDy=0;entryX=0.5;entryY=0;entryDx=0;entryDy=0;labelBackgroundColor=default;fontFamily=Helvetica;fontSize=16;fontColor=#000000;endArrow=blockThin;endFill=1;strokeColor=#000000;strokeWidth=1;" parent="3" source="219" target="222" edge="1">
                    <mxGeometry relative="1" as="geometry"/>
                </mxCell>
                <mxCell id="235" style="edgeStyle=orthogonalEdgeStyle;shape=connector;rounded=1;html=1;exitX=0.5;exitY=1;exitDx=0;exitDy=0;entryX=0.5;entryY=0;entryDx=0;entryDy=0;labelBackgroundColor=default;fontFamily=Helvetica;fontSize=16;fontColor=#000000;endArrow=blockThin;endFill=1;strokeColor=#000000;strokeWidth=1;" parent="3" source="219" target="233" edge="1">
                    <mxGeometry relative="1" as="geometry"/>
                </mxCell>
                <mxCell id="219" value="&lt;div style=&quot;font-size: 16px&quot;&gt;&lt;div style=&quot;font-size: 16px&quot;&gt;&lt;div style=&quot;font-size: 16px&quot;&gt;&lt;div style=&quot;font-size: 16px&quot;&gt;&lt;div style=&quot;font-size: 16px&quot;&gt;？&lt;br&gt;&lt;/div&gt;&lt;/div&gt;&lt;/div&gt;&lt;/div&gt;&lt;div style=&quot;font-size: 16px&quot;&gt;&lt;/div&gt;&lt;/div&gt;" style="rounded=1;whiteSpace=wrap;html=1;fillColor=#E6E6E6;fontColor=#000000;fontSize=16;strokeColor=none;strokeWidth=2;" parent="3" vertex="1">
                    <mxGeometry x="751" y="2040" width="50" height="30" as="geometry"/>
                </mxCell>
                <mxCell id="220" value="&lt;div style=&quot;font-size: 14px&quot;&gt;&lt;div style=&quot;font-size: 14px&quot;&gt;&lt;div style=&quot;font-size: 14px&quot;&gt;&lt;div style=&quot;font-size: 14px&quot;&gt;&lt;div&gt;怀公&lt;/div&gt;&lt;/div&gt;&lt;/div&gt;&lt;/div&gt;&lt;/div&gt;" style="text;html=1;align=center;verticalAlign=middle;resizable=0;points=[];autosize=1;strokeColor=none;fillColor=none;fontSize=14;fontColor=#000000;" parent="3" vertex="1">
                    <mxGeometry x="800" y="2045" width="40" height="20" as="geometry"/>
                </mxCell>
                <mxCell id="228" style="edgeStyle=orthogonalEdgeStyle;shape=connector;rounded=1;html=1;exitX=0.5;exitY=1;exitDx=0;exitDy=0;entryX=0.5;entryY=0;entryDx=0;entryDy=0;labelBackgroundColor=default;fontFamily=Helvetica;fontSize=16;fontColor=#000000;endArrow=blockThin;endFill=1;strokeColor=#000000;strokeWidth=1;" parent="3" source="222" target="226" edge="1">
                    <mxGeometry relative="1" as="geometry"/>
                </mxCell>
                <mxCell id="222" value="&lt;div style=&quot;font-size: 16px&quot;&gt;&lt;div style=&quot;font-size: 16px&quot;&gt;&lt;div style=&quot;font-size: 16px&quot;&gt;&lt;div style=&quot;font-size: 16px&quot;&gt;&lt;div style=&quot;font-size: 16px&quot;&gt;昭子&lt;/div&gt;&lt;/div&gt;&lt;/div&gt;&lt;/div&gt;&lt;div style=&quot;font-size: 16px&quot;&gt;&lt;/div&gt;&lt;/div&gt;" style="rounded=1;whiteSpace=wrap;html=1;fillColor=#E6E6E6;fontColor=#000000;fontSize=16;strokeColor=none;strokeWidth=2;" parent="3" vertex="1">
                    <mxGeometry x="751" y="2100" width="50" height="30" as="geometry"/>
                </mxCell>
                <mxCell id="225" value="&lt;font color=&quot;#ffff00&quot;&gt;20&lt;/font&gt;" style="ellipse;whiteSpace=wrap;html=1;aspect=fixed;fontFamily=Helvetica;fontSize=10;fontColor=#ffffff;fillColor=#a20025;strokeColor=#6F0000;" parent="3" vertex="1">
                    <mxGeometry x="730" y="2165.5" width="19.5" height="19.5" as="geometry"/>
                </mxCell>
                <mxCell id="231" style="edgeStyle=orthogonalEdgeStyle;shape=connector;rounded=1;html=1;exitX=0.5;exitY=1;exitDx=0;exitDy=0;entryX=0.5;entryY=0;entryDx=0;entryDy=0;labelBackgroundColor=default;fontFamily=Helvetica;fontSize=16;fontColor=#000000;endArrow=blockThin;endFill=1;strokeColor=#000000;strokeWidth=1;" parent="3" source="226" target="229" edge="1">
                    <mxGeometry relative="1" as="geometry"/>
                </mxCell>
                <mxCell id="226" value="&lt;div style=&quot;font-size: 16px&quot;&gt;&lt;div style=&quot;font-size: 16px&quot;&gt;&lt;div style=&quot;font-size: 16px&quot;&gt;&lt;div style=&quot;font-size: 16px&quot;&gt;&lt;div style=&quot;font-size: 16px&quot;&gt;？&lt;br&gt;&lt;/div&gt;&lt;/div&gt;&lt;/div&gt;&lt;/div&gt;&lt;div style=&quot;font-size: 16px&quot;&gt;&lt;/div&gt;&lt;/div&gt;" style="rounded=1;whiteSpace=wrap;html=1;fillColor=#E6E6E6;fontColor=#000000;fontSize=16;strokeColor=none;strokeWidth=2;" parent="3" vertex="1">
                    <mxGeometry x="751" y="2160" width="50" height="30" as="geometry"/>
                </mxCell>
                <mxCell id="227" value="&lt;div style=&quot;font-size: 14px&quot;&gt;&lt;div style=&quot;font-size: 14px&quot;&gt;&lt;div style=&quot;font-size: 14px&quot;&gt;&lt;div style=&quot;font-size: 14px&quot;&gt;&lt;div&gt;灵公&lt;/div&gt;&lt;/div&gt;&lt;/div&gt;&lt;/div&gt;&lt;/div&gt;" style="text;html=1;align=center;verticalAlign=middle;resizable=0;points=[];autosize=1;strokeColor=none;fillColor=none;fontSize=14;fontColor=#000000;" parent="3" vertex="1">
                    <mxGeometry x="800" y="2165" width="40" height="20" as="geometry"/>
                </mxCell>
                <mxCell id="248" style="edgeStyle=orthogonalEdgeStyle;shape=connector;rounded=1;html=1;exitX=0.5;exitY=1;exitDx=0;exitDy=0;entryX=0.5;entryY=0;entryDx=0;entryDy=0;labelBackgroundColor=default;fontFamily=Helvetica;fontSize=16;fontColor=#000000;endArrow=blockThin;endFill=1;strokeColor=#000000;strokeWidth=1;" parent="3" source="229" target="246" edge="1">
                    <mxGeometry relative="1" as="geometry"/>
                </mxCell>
                <mxCell id="229" value="&lt;div style=&quot;font-size: 16px&quot;&gt;&lt;div style=&quot;font-size: 16px&quot;&gt;&lt;div style=&quot;font-size: 16px&quot;&gt;&lt;div style=&quot;font-size: 16px&quot;&gt;&lt;div style=&quot;font-size: 16px&quot;&gt;赢师隰&lt;br&gt;&lt;/div&gt;&lt;/div&gt;&lt;/div&gt;&lt;/div&gt;&lt;div style=&quot;font-size: 16px&quot;&gt;&lt;/div&gt;&lt;/div&gt;" style="rounded=1;whiteSpace=wrap;html=1;fillColor=#E6E6E6;fontColor=#000000;fontSize=16;strokeColor=none;strokeWidth=2;" parent="3" vertex="1">
                    <mxGeometry x="745.5" y="2220" width="60" height="30" as="geometry"/>
                </mxCell>
                <mxCell id="230" value="&lt;div style=&quot;font-size: 14px&quot;&gt;&lt;div style=&quot;font-size: 14px&quot;&gt;&lt;div style=&quot;font-size: 14px&quot;&gt;&lt;div style=&quot;font-size: 14px&quot;&gt;&lt;div&gt;献公&lt;/div&gt;&lt;/div&gt;&lt;/div&gt;&lt;/div&gt;&lt;/div&gt;" style="text;html=1;align=center;verticalAlign=middle;resizable=0;points=[];autosize=1;strokeColor=none;fillColor=none;fontSize=14;fontColor=#000000;" parent="3" vertex="1">
                    <mxGeometry x="803.5" y="2225" width="40" height="20" as="geometry"/>
                </mxCell>
                <mxCell id="232" value="&lt;font color=&quot;#ffff00&quot;&gt;21&lt;/font&gt;" style="ellipse;whiteSpace=wrap;html=1;aspect=fixed;fontFamily=Helvetica;fontSize=10;fontColor=#ffffff;fillColor=#a20025;strokeColor=#6F0000;" parent="3" vertex="1">
                    <mxGeometry x="850" y="2105.5" width="19.5" height="19.5" as="geometry"/>
                </mxCell>
                <mxCell id="239" style="edgeStyle=orthogonalEdgeStyle;shape=connector;rounded=1;html=1;exitX=0.5;exitY=1;exitDx=0;exitDy=0;entryX=0.5;entryY=0;entryDx=0;entryDy=0;labelBackgroundColor=default;fontFamily=Helvetica;fontSize=16;fontColor=#000000;endArrow=blockThin;endFill=1;strokeColor=#000000;strokeWidth=1;" parent="3" source="233" target="237" edge="1">
                    <mxGeometry relative="1" as="geometry"/>
                </mxCell>
                <mxCell id="233" value="&lt;div style=&quot;font-size: 16px&quot;&gt;&lt;div style=&quot;font-size: 16px&quot;&gt;&lt;div style=&quot;font-size: 16px&quot;&gt;&lt;div style=&quot;font-size: 16px&quot;&gt;&lt;div style=&quot;font-size: 16px&quot;&gt;悼子&lt;br&gt;&lt;/div&gt;&lt;/div&gt;&lt;/div&gt;&lt;/div&gt;&lt;div style=&quot;font-size: 16px&quot;&gt;&lt;/div&gt;&lt;/div&gt;" style="rounded=1;whiteSpace=wrap;html=1;fillColor=#E6E6E6;fontColor=#000000;fontSize=16;strokeColor=none;strokeWidth=2;" parent="3" vertex="1">
                    <mxGeometry x="871" y="2100" width="50" height="30" as="geometry"/>
                </mxCell>
                <mxCell id="234" value="&lt;div style=&quot;font-size: 14px&quot;&gt;&lt;div style=&quot;font-size: 14px&quot;&gt;&lt;div style=&quot;font-size: 14px&quot;&gt;&lt;div style=&quot;font-size: 14px&quot;&gt;&lt;div&gt;简公&lt;/div&gt;&lt;/div&gt;&lt;/div&gt;&lt;/div&gt;&lt;/div&gt;" style="text;html=1;align=center;verticalAlign=middle;resizable=0;points=[];autosize=1;strokeColor=none;fillColor=none;fontSize=14;fontColor=#000000;" parent="3" vertex="1">
                    <mxGeometry x="920" y="2105" width="40" height="20" as="geometry"/>
                </mxCell>
                <mxCell id="236" value="&lt;font color=&quot;#ffff00&quot;&gt;22&lt;/font&gt;" style="ellipse;whiteSpace=wrap;html=1;aspect=fixed;fontFamily=Helvetica;fontSize=10;fontColor=#ffffff;fillColor=#a20025;strokeColor=#6F0000;" parent="3" vertex="1">
                    <mxGeometry x="850" y="2165.5" width="19.5" height="19.5" as="geometry"/>
                </mxCell>
                <mxCell id="243" style="edgeStyle=orthogonalEdgeStyle;shape=connector;rounded=1;html=1;exitX=0.5;exitY=1;exitDx=0;exitDy=0;entryX=0.5;entryY=0;entryDx=0;entryDy=0;labelBackgroundColor=default;fontFamily=Helvetica;fontSize=16;fontColor=#000000;endArrow=blockThin;endFill=1;strokeColor=#000000;strokeWidth=1;" parent="3" source="237" target="241" edge="1">
                    <mxGeometry relative="1" as="geometry"/>
                </mxCell>
                <mxCell id="237" value="&lt;div style=&quot;font-size: 16px&quot;&gt;&lt;div style=&quot;font-size: 16px&quot;&gt;&lt;div style=&quot;font-size: 16px&quot;&gt;&lt;div style=&quot;font-size: 16px&quot;&gt;&lt;div style=&quot;font-size: 16px&quot;&gt;？&lt;br&gt;&lt;/div&gt;&lt;/div&gt;&lt;/div&gt;&lt;/div&gt;&lt;div style=&quot;font-size: 16px&quot;&gt;&lt;/div&gt;&lt;/div&gt;" style="rounded=1;whiteSpace=wrap;html=1;fillColor=#E6E6E6;fontColor=#000000;fontSize=16;strokeColor=none;strokeWidth=2;" parent="3" vertex="1">
                    <mxGeometry x="871" y="2160" width="50" height="30" as="geometry"/>
                </mxCell>
                <mxCell id="238" value="&lt;div style=&quot;font-size: 14px&quot;&gt;&lt;div style=&quot;font-size: 14px&quot;&gt;&lt;div style=&quot;font-size: 14px&quot;&gt;&lt;div style=&quot;font-size: 14px&quot;&gt;&lt;div&gt;惠公&lt;/div&gt;&lt;/div&gt;&lt;/div&gt;&lt;/div&gt;&lt;/div&gt;" style="text;html=1;align=center;verticalAlign=middle;resizable=0;points=[];autosize=1;strokeColor=none;fillColor=none;fontSize=14;fontColor=#000000;" parent="3" vertex="1">
                    <mxGeometry x="920" y="2165" width="40" height="20" as="geometry"/>
                </mxCell>
                <mxCell id="240" value="&lt;font color=&quot;#ffff00&quot;&gt;23&lt;/font&gt;" style="ellipse;whiteSpace=wrap;html=1;aspect=fixed;fontFamily=Helvetica;fontSize=10;fontColor=#ffffff;fillColor=#a20025;strokeColor=#6F0000;" parent="3" vertex="1">
                    <mxGeometry x="850" y="2225.5" width="19.5" height="19.5" as="geometry"/>
                </mxCell>
                <mxCell id="241" value="&lt;div style=&quot;font-size: 16px&quot;&gt;&lt;div style=&quot;font-size: 16px&quot;&gt;&lt;div style=&quot;font-size: 16px&quot;&gt;&lt;div style=&quot;font-size: 16px&quot;&gt;&lt;div style=&quot;font-size: 16px&quot;&gt;出子&lt;br&gt;&lt;/div&gt;&lt;/div&gt;&lt;/div&gt;&lt;/div&gt;&lt;div style=&quot;font-size: 16px&quot;&gt;&lt;/div&gt;&lt;/div&gt;" style="rounded=1;whiteSpace=wrap;html=1;fillColor=#E6E6E6;fontColor=#000000;fontSize=16;strokeColor=none;strokeWidth=2;" parent="3" vertex="1">
                    <mxGeometry x="871" y="2220" width="50" height="30" as="geometry"/>
                </mxCell>
                <mxCell id="244" value="&lt;font color=&quot;#ffff00&quot;&gt;24&lt;/font&gt;" style="ellipse;whiteSpace=wrap;html=1;aspect=fixed;fontFamily=Helvetica;fontSize=10;fontColor=#ffffff;fillColor=#a20025;strokeColor=#6F0000;" parent="3" vertex="1">
                    <mxGeometry x="726" y="2225" width="19.5" height="19.5" as="geometry"/>
                </mxCell>
                <mxCell id="245" value="&lt;font color=&quot;#ffff00&quot;&gt;25&lt;/font&gt;" style="ellipse;whiteSpace=wrap;html=1;aspect=fixed;fontFamily=Helvetica;fontSize=10;fontColor=#ffffff;fillColor=#a20025;strokeColor=#6F0000;" parent="3" vertex="1">
                    <mxGeometry x="726" y="2285" width="19.5" height="19.5" as="geometry"/>
                </mxCell>
                <mxCell id="252" style="edgeStyle=orthogonalEdgeStyle;shape=connector;rounded=1;html=1;exitX=0.5;exitY=1;exitDx=0;exitDy=0;entryX=0.5;entryY=0;entryDx=0;entryDy=0;labelBackgroundColor=default;fontFamily=Helvetica;fontSize=16;fontColor=#000000;endArrow=blockThin;endFill=1;strokeColor=#000000;strokeWidth=1;" parent="3" source="246" target="250" edge="1">
                    <mxGeometry relative="1" as="geometry"/>
                </mxCell>
                <mxCell id="246" value="&lt;div style=&quot;font-size: 16px&quot;&gt;&lt;div style=&quot;font-size: 16px&quot;&gt;&lt;div style=&quot;font-size: 16px&quot;&gt;&lt;div style=&quot;font-size: 16px&quot;&gt;&lt;div style=&quot;font-size: 16px&quot;&gt;赢渠梁&lt;br&gt;&lt;/div&gt;&lt;/div&gt;&lt;/div&gt;&lt;/div&gt;&lt;div style=&quot;font-size: 16px&quot;&gt;&lt;/div&gt;&lt;/div&gt;" style="rounded=1;whiteSpace=wrap;html=1;fillColor=#E6E6E6;fontColor=#000000;fontSize=16;strokeColor=none;strokeWidth=2;" parent="3" vertex="1">
                    <mxGeometry x="745.5" y="2280" width="60" height="30" as="geometry"/>
                </mxCell>
                <mxCell id="247" value="&lt;div style=&quot;font-size: 14px&quot;&gt;&lt;div style=&quot;font-size: 14px&quot;&gt;&lt;div style=&quot;font-size: 14px&quot;&gt;&lt;div style=&quot;font-size: 14px&quot;&gt;&lt;div&gt;孝公&lt;/div&gt;&lt;/div&gt;&lt;/div&gt;&lt;/div&gt;&lt;/div&gt;" style="text;html=1;align=center;verticalAlign=middle;resizable=0;points=[];autosize=1;strokeColor=none;fillColor=none;fontSize=14;fontColor=#000000;" parent="3" vertex="1">
                    <mxGeometry x="803.5" y="2285" width="40" height="20" as="geometry"/>
                </mxCell>
                <mxCell id="249" value="&lt;font color=&quot;#ffff00&quot;&gt;26&lt;/font&gt;" style="ellipse;whiteSpace=wrap;html=1;aspect=fixed;fontFamily=Helvetica;fontSize=10;fontColor=#ffffff;fillColor=#a20025;strokeColor=#6F0000;" parent="3" vertex="1">
                    <mxGeometry x="729" y="2345" width="19.5" height="19.5" as="geometry"/>
                </mxCell>
                <mxCell id="256" style="edgeStyle=orthogonalEdgeStyle;shape=connector;rounded=1;html=1;exitX=0.5;exitY=1;exitDx=0;exitDy=0;entryX=0.5;entryY=0;entryDx=0;entryDy=0;labelBackgroundColor=default;fontFamily=Helvetica;fontSize=16;fontColor=#000000;endArrow=blockThin;endFill=1;strokeColor=#000000;strokeWidth=1;" parent="3" source="250" target="254" edge="1">
                    <mxGeometry relative="1" as="geometry"/>
                </mxCell>
                <mxCell id="260" style="edgeStyle=orthogonalEdgeStyle;shape=connector;rounded=1;html=1;exitX=0.5;exitY=1;exitDx=0;exitDy=0;entryX=0.5;entryY=0;entryDx=0;entryDy=0;labelBackgroundColor=default;fontFamily=Helvetica;fontSize=16;fontColor=#000000;endArrow=blockThin;endFill=1;strokeColor=#000000;strokeWidth=1;" parent="3" source="250" target="258" edge="1">
                    <mxGeometry relative="1" as="geometry">
                        <Array as="points">
                            <mxPoint x="776" y="2376"/>
                            <mxPoint x="908" y="2376"/>
                        </Array>
                    </mxGeometry>
                </mxCell>
                <mxCell id="285" style="edgeStyle=orthogonalEdgeStyle;shape=connector;rounded=1;html=1;exitX=0.5;exitY=1;exitDx=0;exitDy=0;entryX=0.5;entryY=0;entryDx=0;entryDy=0;labelBackgroundColor=default;fontFamily=Helvetica;fontSize=16;fontColor=#000000;endArrow=blockThin;endFill=1;strokeColor=#000000;strokeWidth=1;" edge="1" parent="3" source="250" target="284">
                    <mxGeometry relative="1" as="geometry">
                        <Array as="points">
                            <mxPoint x="776" y="2376"/>
                            <mxPoint x="1030" y="2376"/>
                        </Array>
                    </mxGeometry>
                </mxCell>
                <mxCell id="250" value="&lt;div style=&quot;font-size: 16px&quot;&gt;&lt;div style=&quot;font-size: 16px&quot;&gt;&lt;div style=&quot;font-size: 16px&quot;&gt;&lt;div style=&quot;font-size: 16px&quot;&gt;&lt;div style=&quot;font-size: 16px&quot;&gt;赢驷&lt;br&gt;&lt;/div&gt;&lt;/div&gt;&lt;/div&gt;&lt;/div&gt;&lt;div style=&quot;font-size: 16px&quot;&gt;&lt;/div&gt;&lt;/div&gt;" style="rounded=1;whiteSpace=wrap;html=1;fillColor=#E6E6E6;fontColor=#000000;fontSize=16;strokeColor=none;strokeWidth=2;" parent="3" vertex="1">
                    <mxGeometry x="750.5" y="2340" width="50" height="30" as="geometry"/>
                </mxCell>
                <mxCell id="251" value="&lt;div style=&quot;font-size: 14px&quot;&gt;&lt;div style=&quot;font-size: 14px&quot;&gt;&lt;div style=&quot;font-size: 14px&quot;&gt;&lt;div style=&quot;font-size: 14px&quot;&gt;惠王&lt;/div&gt;&lt;/div&gt;&lt;/div&gt;&lt;/div&gt;" style="text;html=1;align=center;verticalAlign=middle;resizable=0;points=[];autosize=1;strokeColor=none;fillColor=none;fontSize=14;fontColor=#000000;" parent="3" vertex="1">
                    <mxGeometry x="799" y="2344.5" width="40" height="20" as="geometry"/>
                </mxCell>
                <mxCell id="253" value="&lt;font color=&quot;#ffff00&quot;&gt;27&lt;/font&gt;" style="ellipse;whiteSpace=wrap;html=1;aspect=fixed;fontFamily=Helvetica;fontSize=10;fontColor=#ffffff;fillColor=#a20025;strokeColor=#6F0000;" parent="3" vertex="1">
                    <mxGeometry x="729" y="2405" width="19.5" height="19.5" as="geometry"/>
                </mxCell>
                <mxCell id="254" value="&lt;div style=&quot;font-size: 16px&quot;&gt;&lt;div style=&quot;font-size: 16px&quot;&gt;&lt;div style=&quot;font-size: 16px&quot;&gt;&lt;div style=&quot;font-size: 16px&quot;&gt;&lt;div style=&quot;font-size: 16px&quot;&gt;赢荡&lt;br&gt;&lt;/div&gt;&lt;/div&gt;&lt;/div&gt;&lt;/div&gt;&lt;div style=&quot;font-size: 16px&quot;&gt;&lt;/div&gt;&lt;/div&gt;" style="rounded=1;whiteSpace=wrap;html=1;fillColor=#E6E6E6;fontColor=#000000;fontSize=16;strokeColor=none;strokeWidth=2;" parent="3" vertex="1">
                    <mxGeometry x="750.5" y="2400" width="50" height="30" as="geometry"/>
                </mxCell>
                <mxCell id="255" value="&lt;div style=&quot;font-size: 14px&quot;&gt;&lt;div style=&quot;font-size: 14px&quot;&gt;&lt;div style=&quot;font-size: 14px&quot;&gt;&lt;div style=&quot;font-size: 14px&quot;&gt;武王&lt;/div&gt;&lt;/div&gt;&lt;/div&gt;&lt;/div&gt;" style="text;html=1;align=center;verticalAlign=middle;resizable=0;points=[];autosize=1;strokeColor=none;fillColor=none;fontSize=14;fontColor=#000000;" parent="3" vertex="1">
                    <mxGeometry x="799" y="2404.5" width="40" height="20" as="geometry"/>
                </mxCell>
                <mxCell id="257" value="&lt;font color=&quot;#ffff00&quot;&gt;28&lt;/font&gt;" style="ellipse;whiteSpace=wrap;html=1;aspect=fixed;fontFamily=Helvetica;fontSize=10;fontColor=#ffffff;fillColor=#a20025;strokeColor=#6F0000;" parent="3" vertex="1">
                    <mxGeometry x="851" y="2405" width="19.5" height="19.5" as="geometry"/>
                </mxCell>
                <mxCell id="265" style="edgeStyle=orthogonalEdgeStyle;shape=connector;rounded=1;html=1;exitX=0.5;exitY=1;exitDx=0;exitDy=0;labelBackgroundColor=default;fontFamily=Helvetica;fontSize=16;fontColor=#000000;endArrow=blockThin;endFill=1;strokeColor=#000000;strokeWidth=1;" parent="3" source="258" target="263" edge="1">
                    <mxGeometry relative="1" as="geometry"/>
                </mxCell>
                <mxCell id="258" value="&lt;div style=&quot;font-size: 16px&quot;&gt;&lt;div style=&quot;font-size: 16px&quot;&gt;&lt;div style=&quot;font-size: 16px&quot;&gt;&lt;div style=&quot;font-size: 16px&quot;&gt;&lt;div style=&quot;font-size: 16px&quot;&gt;赢则(稷)&lt;br&gt;&lt;/div&gt;&lt;/div&gt;&lt;/div&gt;&lt;/div&gt;&lt;div style=&quot;font-size: 16px&quot;&gt;&lt;/div&gt;&lt;/div&gt;" style="rounded=1;whiteSpace=wrap;html=1;fillColor=#E6E6E6;fontColor=#000000;fontSize=16;strokeColor=none;strokeWidth=2;" parent="3" vertex="1">
                    <mxGeometry x="872.5" y="2400" width="70" height="30" as="geometry"/>
                </mxCell>
                <mxCell id="259" value="&lt;div style=&quot;font-size: 14px&quot;&gt;&lt;div style=&quot;font-size: 14px&quot;&gt;&lt;div style=&quot;font-size: 14px&quot;&gt;&lt;div style=&quot;font-size: 14px&quot;&gt;昭襄王&lt;/div&gt;&lt;/div&gt;&lt;/div&gt;&lt;/div&gt;" style="text;html=1;align=center;verticalAlign=middle;resizable=0;points=[];autosize=1;strokeColor=none;fillColor=none;fontSize=14;fontColor=#000000;" parent="3" vertex="1">
                    <mxGeometry x="940" y="2404.5" width="60" height="20" as="geometry"/>
                </mxCell>
                <mxCell id="261" value="&lt;div style=&quot;font-size: 14px&quot;&gt;&lt;div style=&quot;font-size: 14px&quot;&gt;&lt;div style=&quot;font-size: 14px&quot;&gt;&lt;div style=&quot;font-size: 14px&quot;&gt;&lt;div&gt;宣太后&lt;/div&gt;&lt;/div&gt;&lt;/div&gt;&lt;/div&gt;&lt;/div&gt;" style="text;html=1;align=center;verticalAlign=middle;resizable=0;points=[];autosize=1;strokeColor=none;fillColor=none;fontSize=14;fontColor=#000000;" parent="3" vertex="1">
                    <mxGeometry x="903" y="2380" width="60" height="20" as="geometry"/>
                </mxCell>
                <mxCell id="262" value="&lt;font color=&quot;#ffff00&quot;&gt;29&lt;/font&gt;" style="ellipse;whiteSpace=wrap;html=1;aspect=fixed;fontFamily=Helvetica;fontSize=10;fontColor=#ffffff;fillColor=#a20025;strokeColor=#6F0000;" parent="3" vertex="1">
                    <mxGeometry x="863" y="2465" width="19.5" height="19.5" as="geometry"/>
                </mxCell>
                <mxCell id="270" style="edgeStyle=orthogonalEdgeStyle;shape=connector;rounded=1;html=1;exitX=0.5;exitY=1;exitDx=0;exitDy=0;entryX=0.5;entryY=0;entryDx=0;entryDy=0;labelBackgroundColor=default;fontFamily=Helvetica;fontSize=16;fontColor=#000000;endArrow=blockThin;endFill=1;strokeColor=#000000;strokeWidth=1;" parent="3" source="263" target="268" edge="1">
                    <mxGeometry relative="1" as="geometry"/>
                </mxCell>
                <mxCell id="263" value="&lt;div style=&quot;font-size: 16px&quot;&gt;&lt;div style=&quot;font-size: 16px&quot;&gt;&lt;div style=&quot;font-size: 16px&quot;&gt;&lt;div style=&quot;font-size: 16px&quot;&gt;&lt;div style=&quot;font-size: 16px&quot;&gt;赢柱&lt;br&gt;&lt;/div&gt;&lt;/div&gt;&lt;/div&gt;&lt;/div&gt;&lt;div style=&quot;font-size: 16px&quot;&gt;&lt;/div&gt;&lt;/div&gt;" style="rounded=1;whiteSpace=wrap;html=1;fillColor=#E6E6E6;fontColor=#000000;fontSize=16;strokeColor=none;strokeWidth=2;" parent="3" vertex="1">
                    <mxGeometry x="882.5" y="2460" width="50" height="30" as="geometry"/>
                </mxCell>
                <mxCell id="264" value="&lt;div style=&quot;font-size: 14px&quot;&gt;&lt;div style=&quot;font-size: 14px&quot;&gt;&lt;div style=&quot;font-size: 14px&quot;&gt;&lt;div style=&quot;font-size: 14px&quot;&gt;孝文王&lt;/div&gt;&lt;/div&gt;&lt;/div&gt;&lt;/div&gt;" style="text;html=1;align=center;verticalAlign=middle;resizable=0;points=[];autosize=1;strokeColor=none;fillColor=none;fontSize=14;fontColor=#000000;" parent="3" vertex="1">
                    <mxGeometry x="930.5" y="2465" width="60" height="20" as="geometry"/>
                </mxCell>
                <mxCell id="266" value="&lt;div style=&quot;font-size: 14px&quot;&gt;&lt;div style=&quot;font-size: 14px&quot;&gt;&lt;div style=&quot;font-size: 14px&quot;&gt;&lt;div style=&quot;font-size: 14px&quot;&gt;&lt;div&gt;唐八子&lt;/div&gt;&lt;/div&gt;&lt;/div&gt;&lt;/div&gt;&lt;/div&gt;" style="text;html=1;align=center;verticalAlign=middle;resizable=0;points=[];autosize=1;strokeColor=none;fillColor=none;fontSize=14;fontColor=#000000;" parent="3" vertex="1">
                    <mxGeometry x="903" y="2436" width="60" height="20" as="geometry"/>
                </mxCell>
                <mxCell id="267" value="&lt;font color=&quot;#ffff00&quot;&gt;30&lt;/font&gt;" style="ellipse;whiteSpace=wrap;html=1;aspect=fixed;fontFamily=Helvetica;fontSize=10;fontColor=#ffffff;fillColor=#a20025;strokeColor=#6F0000;" parent="3" vertex="1">
                    <mxGeometry x="858" y="2521" width="19.5" height="19.5" as="geometry"/>
                </mxCell>
                <mxCell id="273" style="edgeStyle=orthogonalEdgeStyle;shape=connector;rounded=1;html=1;exitX=0.5;exitY=1;exitDx=0;exitDy=0;entryX=0.5;entryY=0;entryDx=0;entryDy=0;labelBackgroundColor=default;fontFamily=Helvetica;fontSize=16;fontColor=#000000;endArrow=blockThin;endFill=1;strokeColor=#000000;strokeWidth=1;" parent="3" source="268" target="271" edge="1">
                    <mxGeometry relative="1" as="geometry"/>
                </mxCell>
                <mxCell id="280" style="edgeStyle=orthogonalEdgeStyle;shape=connector;rounded=1;html=1;exitX=0.5;exitY=1;exitDx=0;exitDy=0;entryX=0.5;entryY=0;entryDx=0;entryDy=0;labelBackgroundColor=default;fontFamily=Helvetica;fontSize=16;fontColor=#FF3333;endArrow=blockThin;endFill=1;strokeColor=#000000;strokeWidth=1;" parent="3" source="268" target="279" edge="1">
                    <mxGeometry relative="1" as="geometry"/>
                </mxCell>
                <mxCell id="268" value="&lt;div style=&quot;font-size: 16px&quot;&gt;&lt;div style=&quot;font-size: 16px&quot;&gt;&lt;div style=&quot;font-size: 16px&quot;&gt;&lt;div style=&quot;font-size: 16px&quot;&gt;&lt;div style=&quot;font-size: 16px&quot;&gt;赢子楚&lt;br&gt;&lt;/div&gt;&lt;/div&gt;&lt;/div&gt;&lt;/div&gt;&lt;div style=&quot;font-size: 16px&quot;&gt;&lt;/div&gt;&lt;/div&gt;" style="rounded=1;whiteSpace=wrap;html=1;fillColor=#E6E6E6;fontColor=#000000;fontSize=16;strokeColor=none;strokeWidth=2;" parent="3" vertex="1">
                    <mxGeometry x="877.5" y="2516" width="60" height="30" as="geometry"/>
                </mxCell>
                <mxCell id="269" value="&lt;div style=&quot;font-size: 14px&quot;&gt;&lt;div style=&quot;font-size: 14px&quot;&gt;&lt;div style=&quot;font-size: 14px&quot;&gt;&lt;div style=&quot;font-size: 14px&quot;&gt;庄襄王&lt;/div&gt;&lt;/div&gt;&lt;/div&gt;&lt;/div&gt;" style="text;html=1;align=center;verticalAlign=middle;resizable=0;points=[];autosize=1;strokeColor=none;fillColor=none;fontSize=14;fontColor=#000000;" parent="3" vertex="1">
                    <mxGeometry x="934.5" y="2521" width="60" height="20" as="geometry"/>
                </mxCell>
                <mxCell id="275" style="edgeStyle=orthogonalEdgeStyle;shape=connector;rounded=1;html=1;exitX=0.5;exitY=1;exitDx=0;exitDy=0;entryX=0.5;entryY=0;entryDx=0;entryDy=0;labelBackgroundColor=default;fontFamily=Helvetica;fontSize=16;fontColor=#000000;endArrow=blockThin;endFill=1;strokeColor=#000000;strokeWidth=1;" parent="3" source="271" target="274" edge="1">
                    <mxGeometry relative="1" as="geometry"/>
                </mxCell>
                <mxCell id="278" style="edgeStyle=orthogonalEdgeStyle;shape=connector;rounded=1;html=1;exitX=0.5;exitY=1;exitDx=0;exitDy=0;entryX=0.5;entryY=0;entryDx=0;entryDy=0;labelBackgroundColor=default;fontFamily=Helvetica;fontSize=16;fontColor=#000000;endArrow=blockThin;endFill=1;strokeColor=#000000;strokeWidth=1;" parent="3" source="271" target="276" edge="1">
                    <mxGeometry relative="1" as="geometry"/>
                </mxCell>
                <mxCell id="271" value="&lt;div style=&quot;font-size: 16px&quot;&gt;&lt;div style=&quot;font-size: 16px&quot;&gt;&lt;div style=&quot;font-size: 16px&quot;&gt;&lt;div style=&quot;font-size: 16px&quot;&gt;&lt;div style=&quot;font-size: 16px&quot;&gt;赢政&lt;br&gt;&lt;/div&gt;&lt;/div&gt;&lt;/div&gt;&lt;/div&gt;&lt;div style=&quot;font-size: 16px&quot;&gt;&lt;/div&gt;&lt;/div&gt;" style="rounded=1;whiteSpace=wrap;html=1;fillColor=#E6E6E6;fontColor=#000000;fontSize=16;strokeColor=none;strokeWidth=2;" parent="3" vertex="1">
                    <mxGeometry x="882.5" y="2576" width="50" height="30" as="geometry"/>
                </mxCell>
                <mxCell id="272" value="&lt;div style=&quot;font-size: 14px&quot;&gt;&lt;div style=&quot;font-size: 14px&quot;&gt;&lt;div style=&quot;font-size: 14px&quot;&gt;&lt;div style=&quot;font-size: 14px&quot;&gt;秦始皇&lt;/div&gt;&lt;/div&gt;&lt;/div&gt;&lt;/div&gt;" style="text;html=1;align=center;verticalAlign=middle;resizable=0;points=[];autosize=1;strokeColor=none;fillColor=none;fontSize=14;fontColor=#000000;" parent="3" vertex="1">
                    <mxGeometry x="930.5" y="2581" width="60" height="20" as="geometry"/>
                </mxCell>
                <mxCell id="274" value="&lt;div style=&quot;font-size: 16px&quot;&gt;&lt;div style=&quot;font-size: 16px&quot;&gt;&lt;div style=&quot;font-size: 16px&quot;&gt;&lt;div style=&quot;font-size: 16px&quot;&gt;&lt;div style=&quot;font-size: 16px&quot;&gt;赢扶苏&lt;br&gt;&lt;/div&gt;&lt;/div&gt;&lt;/div&gt;&lt;/div&gt;&lt;div style=&quot;font-size: 16px&quot;&gt;&lt;/div&gt;&lt;/div&gt;" style="rounded=1;whiteSpace=wrap;html=1;fillColor=#E6E6E6;fontColor=#000000;fontSize=16;strokeColor=none;strokeWidth=2;" parent="3" vertex="1">
                    <mxGeometry x="877.5" y="2636" width="60" height="30" as="geometry"/>
                </mxCell>
                <mxCell id="276" value="&lt;div style=&quot;font-size: 16px&quot;&gt;&lt;div style=&quot;font-size: 16px&quot;&gt;&lt;div style=&quot;font-size: 16px&quot;&gt;&lt;div style=&quot;font-size: 16px&quot;&gt;&lt;div style=&quot;font-size: 16px&quot;&gt;赢胡亥&lt;br&gt;&lt;/div&gt;&lt;/div&gt;&lt;/div&gt;&lt;/div&gt;&lt;div style=&quot;font-size: 16px&quot;&gt;&lt;/div&gt;&lt;/div&gt;" style="rounded=1;whiteSpace=wrap;html=1;fillColor=#E6E6E6;fontColor=#000000;fontSize=16;strokeColor=none;strokeWidth=2;" parent="3" vertex="1">
                    <mxGeometry x="960" y="2636" width="60" height="30" as="geometry"/>
                </mxCell>
                <mxCell id="277" value="&lt;div style=&quot;font-size: 14px&quot;&gt;&lt;div style=&quot;font-size: 14px&quot;&gt;&lt;div style=&quot;font-size: 14px&quot;&gt;&lt;div style=&quot;font-size: 14px&quot;&gt;秦二世&lt;/div&gt;&lt;/div&gt;&lt;/div&gt;&lt;/div&gt;" style="text;html=1;align=center;verticalAlign=middle;resizable=0;points=[];autosize=1;strokeColor=none;fillColor=none;fontSize=14;fontColor=#000000;" parent="3" vertex="1">
                    <mxGeometry x="1018" y="2641" width="60" height="20" as="geometry"/>
                </mxCell>
                <mxCell id="279" value="&lt;div style=&quot;font-size: 16px&quot;&gt;&lt;div style=&quot;font-size: 16px&quot;&gt;&lt;div style=&quot;font-size: 16px&quot;&gt;&lt;div style=&quot;font-size: 16px&quot;&gt;&lt;div style=&quot;font-size: 16px&quot;&gt;赢成蛟&lt;br&gt;&lt;/div&gt;&lt;/div&gt;&lt;/div&gt;&lt;/div&gt;&lt;div style=&quot;font-size: 16px&quot;&gt;&lt;/div&gt;&lt;/div&gt;" style="rounded=1;whiteSpace=wrap;html=1;fillColor=#E6E6E6;fontColor=#000000;fontSize=16;strokeColor=none;strokeWidth=2;" parent="3" vertex="1">
                    <mxGeometry x="1000" y="2576" width="60" height="30" as="geometry"/>
                </mxCell>
                <mxCell id="284" value="&lt;div style=&quot;font-size: 16px&quot;&gt;&lt;div style=&quot;font-size: 16px&quot;&gt;&lt;div style=&quot;font-size: 16px&quot;&gt;&lt;div style=&quot;font-size: 16px&quot;&gt;&lt;div style=&quot;font-size: 16px&quot;&gt;赢芾&lt;br&gt;&lt;/div&gt;&lt;/div&gt;&lt;/div&gt;&lt;/div&gt;&lt;div style=&quot;font-size: 16px&quot;&gt;&lt;/div&gt;&lt;/div&gt;" style="rounded=1;whiteSpace=wrap;html=1;fillColor=#E6E6E6;fontColor=#000000;fontSize=16;strokeColor=none;strokeWidth=2;" vertex="1" parent="3">
                    <mxGeometry x="1005" y="2399.5" width="50" height="30" as="geometry"/>
                </mxCell>
            </root>
        </mxGraphModel>
    </diagram>
</mxfile>